<?xml version="1.0" standalone="no"?>
<!DOCTYPE svg PUBLIC "-//W3C//DTD SVG 1.1//EN" "http://www.w3.org/Graphics/SVG/1.1/DTD/svg11.dtd" >
<svg xmlns="http://www.w3.org/2000/svg" xmlns:xlink="http://www.w3.org/1999/xlink" version="1.1">
<metadata>
Created by FontForge 20150824 at Tue Nov  8 03:29:09 2016
 By Everything Fonts
</metadata>
<defs>
<font id="Goodnight" horiz-adv-x="833" >
  <font-face 
    font-family="Goodnight"
    font-weight="400"
    font-stretch="normal"
    units-per-em="1000"
    panose-1="0 0 0 0 0 0 0 0 0 0"
    ascent="800"
    descent="-200"
    x-height="495"
    cap-height="491"
    bbox="-582.061 -1108 3039 1622.73"
    underline-thickness="50"
    underline-position="-150"
    unicode-range="U+0020-2212"
  />
<missing-glyph horiz-adv-x="424" 
 />
    <glyph glyph-name=".notdef" horiz-adv-x="424" 
 />
    <glyph glyph-name=".null" horiz-adv-x="0" 
 />
    <glyph glyph-name="nonmarkingreturn" horiz-adv-x="424" 
 />
    <glyph glyph-name="space" unicode=" " horiz-adv-x="503" 
 />
    <glyph glyph-name="space" unicode="&#xa0;" horiz-adv-x="503" 
 />
    <glyph glyph-name="exclam" unicode="!" horiz-adv-x="521" 
d="M208 159q-1 0 -1.5 0.5t-1.5 0.5q-7 6 -4 14l307 659q5 8 13 5q8 -5 5 -13l-308 -660q-2 -6 -10 -6zM441 746q-7 2 -9 7q-2 8 6 13q12 5 23.5 16t20.5 22.5t14.5 20l5.5 8.5q6 7 14 4q6 -6 3 -13q-1 -1 -7 -10.5t-16 -22t-23 -25t-28 -18.5q-2 -2 -4 -2zM163 8
q-5 1 -8.5 1t-7.5 2q-21 8 -29 22t-9 15q-9 29 3 50q6 9 14.5 14.5t16.5 8.5t14 4l6 1q10 -2 10 -10q16 5 30 -1q14 -5 23.5 -18.5t11.5 -28.5q1 -27 -21 -43q-28 -17 -54 -17zM127 55q0 -2 6 -11.5t20 -14.5q22 -8 54 12q8 6 10 13t2 12q-3 22 -23 32q-6 2 -13 1t-13 -7
q-1 0 -7 -6.5t-11 -17.5q-1 -4 -5 -5.5t-7 0.5q-9 4 -5 13q5 10 10.5 17t9.5 11q-6 -2 -14 -5.5t-12 -11.5q-8 -11 -2 -32z" />
    <glyph glyph-name="quotedbl" unicode="&#x22;" horiz-adv-x="293" 
d="M10 522q4 100 10 158t6 61q3 13 13 13q12 0 12 -12q1 -14 2.5 -32t4 -35t6 -30.5t7.5 -18.5q7 -9 -2 -18q-11 -6 -18 2q-2 2 -2 3t-1 3q0 -44 -2.5 -65.5t-5 -30t-5 -9l-2.5 -0.5q-3 0 -5 -1t-7 -1t-8 4t-3 9zM197 521q4 100 10 158t6 61q3 12 13 12q5 0 8.5 -3t3.5 -8
q1 -14 2.5 -32t4 -35t6 -30.5t7.5 -19.5q7 -8 -2 -17q-13 -7 -18 2q-2 2 -2 3t-1 2q0 -43 -2.5 -64.5t-5 -30.5t-5 -9t-2.5 -1q-3 0 -5 -0.5t-7 -0.5q-11 0 -11 13z" />
    <glyph glyph-name="numbersign" unicode="#" horiz-adv-x="804" 
d="M221 4l-26 11l174 379l-21 9l83 114l15 -21zM422 4l-26 11l169 375l-18 9l76 98l24 -1zM98 285q-8 0 -10 9q0 10 9 10l36 3t114 5t202 3t301 -3q9 0 9 -10q0 -9 -9 -9h-1q-176 4 -299.5 3t-201 -3t-113.5 -5l-36 -3h-1zM97 290q-4 0 -4 12q2 14 6 14q24 2 39 2.5t23 1.5
q10 1 13 2q2 1 3.5 -3t1.5 -10q-1 -5 -2 -16t-3 -12l-2.5 3.5t-10.5 6.5t-23 3.5t-41 -4.5zM12 171q-10 0 -10 9q0 8 9 10q1 0 53 3t149.5 6t237.5 4t317 -3q9 0 9 -10q0 -9 -10 -9q-176 4 -315.5 3t-237 -4t-149.5 -6t-53 -3zM11 179q-4 0 -4 10q2 13 6 13q24 2 39 2.5
t23 1.5q10 1 13 2q2 1 3.5 -3t1.5 -10q-1 -6 -2 -16t-3 -11l-2.5 3.5t-10.5 7t-23 4.5t-41 -4z" />
    <glyph glyph-name="dollar" unicode="$" horiz-adv-x="536" 
d="M228 6q-21 0 -43 3q-41 8 -78.5 27t-62.5 46q-38 37 -41.5 78t24.5 76q9 8 18 2q3 -3 3.5 -8.5t-2.5 -10.5q-16 -19 -18 -37.5t3 -34.5t14 -29t17 -21q23 -24 57 -41.5t72 -23.5t75.5 1t68.5 31q38 29 55 55t16 49q-1 19 -13 36.5t-32 35t-45 34t-52 34.5q-20 12 -40 25
t-39 27q-15 10 -37 28.5t-40.5 41t-29 47.5t-3.5 49q10 32 60 52q51 19 147 22q139 3 159 -49q10 -39 -41 -96q-19 -20 -35.5 -33.5t-17.5 -14.5q-11 -5 -17 2q-4 4 -3 9.5t6 7.5q0 1 15.5 13t32.5 32q44 47 36 73q-2 4 -8.5 10t-21.5 11t-40 8.5t-65 2.5q-45 -1 -79.5 -5.5
t-58.5 -14.5q-39 -13 -45 -37q-8 -26 18.5 -63t82.5 -76q19 -14 38 -27t39 -24q29 -18 56.5 -36.5t48.5 -37.5t34.5 -40.5t13.5 -45.5q3 -58 -81 -125q-25 -19 -56 -28.5t-65 -9.5zM96 166q-5 0 -7 3l-52 41q-8 5 -1 15l17 28q9 6 11 4q7 0 11 -7l32 -65q2 -2 2 -7t-4 -8.5
t-9 -3.5zM62 219l2 -1l-1 5zM-29 -256h-1q-3 0 -6.5 4.5t-2.5 8.5q4 50 23.5 117t54.5 155q29 71 68.5 152t87.5 174q40 76 77 144.5t68 121.5q-14 -15 -27 -27t-27 -17q-7 -4 -14 5q-4 5 -2 9.5t8 6.5q13 8 32.5 27t39 41.5t37 44t26.5 33.5q8 11 17 4q3 -3 4 -7.5t-2 -9.5
q0 -1 -19 -32t-49 -84.5t-69 -123.5t-80 -149q-108 -205 -166 -354.5t-64 -231.5q-2 -4 -5 -8t-9 -4z" />
    <glyph glyph-name="percent" unicode="%" horiz-adv-x="524" 
d="M359 49q-15 0 -25 2.5t-11 2.5q-5 2 -7.5 7.5t-0.5 10.5q4 13 17 9l6.5 -2t16.5 -2t22.5 2t25.5 9q47 25 66 97q0 1 2.5 12t2.5 25.5t-3.5 29.5t-14.5 26q-27 26 -95 6q-32 -9 -50 -37.5t-23 -55.5q-5 -25 -1.5 -45.5t14.5 -28.5q14 -12 41 0q2 1 22 13t42 34q11 11 20 0
q11 -9 0 -20q-26 -26 -48 -38.5t-24 -13.5q-27 -12 -44 -8.5t-27 11.5q-17 14 -23.5 41.5t0.5 60.5q8 39 31 69q12 17 28 28.5t34 16.5q85 24 122 -13q16 -15 21.5 -35t5.5 -38.5t-3 -32t-3 -14.5q-24 -86 -80 -115q-16 -8 -30.5 -11t-26.5 -3zM108 384q-15 0 -25 2t-11 3
q-13 4 -8 18q2 5 7 7.5t10 0.5l6.5 -1.5t16.5 -2t22.5 1.5t25.5 9q46 25 67 98q0 1 2 11.5t2 25t-3.5 29.5t-14.5 26q-27 27 -95 7q-16 -5 -28.5 -15t-21.5 -23t-14.5 -27.5t-8.5 -27.5q-5 -25 -1.5 -45.5t14.5 -29.5q14 -11 41 1q2 1 22 12.5t43 34.5q4 4 9.5 4t9.5 -4
q5 -5 5 -10.5t-5 -9.5q-26 -26 -48 -39t-24 -13v-1q-26 -11 -43.5 -8t-27.5 11q-17 14 -23.5 41.5t0.5 60.5q10 41 31 70q25 34 62 45q84 24 123 -14q15 -15 20.5 -35t5.5 -38.5t-2.5 -32t-2.5 -14.5h-1q-24 -85 -80 -115q-16 -8 -30.5 -10.5t-26.5 -2.5zM93 3q-4 0 -6 1
q-13 7 -6 19q18 34 48.5 91t66.5 122t72.5 132t66.5 122q-4 -3 -8 -5q-5 -2 -10.5 0.5t-7.5 7.5q-5 13 7 18q4 2 16.5 12.5t38.5 44.5l24.5 35t10.5 16q3 5 8.5 6t10.5 -2q12 -7 5 -19q-1 -1 -20 -35.5t-49 -89t-66.5 -121.5t-72.5 -133t-67.5 -123t-49.5 -92q-3 -7 -12 -7z
" />
    <glyph glyph-name="ampersand" unicode="&#x26;" horiz-adv-x="639" 
d="M579 -32q-9 0 -10 6q-34 48 -56.5 81t-39.5 58q-19 26 -35 49.5t-36 53t-47 70t-66 102.5q-14 19 -27.5 40t-25 39t-18.5 30t-8 14q-6 9 3 16q12 5 18 -4q22 -35 41.5 -65.5t36.5 -56.5q11 -15 19 -26t15 -17q8 -6 4 -14q28 -44 48 -75t36 -55t30 -44.5t31 -43.5t40 -56
t57 -84q6 -8 -4 -15q-2 -3 -6 -3zM400 188q-14 0 -19 13q-2 8 2 14.5t12 7.5q1 0 5 2.5t13.5 10.5t26.5 23t44 41q28 28 49 50t22 22q12 14 26 2q6 -5 6 -13t-6 -13l-23 -23q-11 -11 -23.5 -24t-26.5 -27q-30 -30 -49.5 -46.5t-30.5 -25t-16.5 -11t-8.5 -3.5h-3zM130 3
q-6 0 -12.5 0.5t-11.5 2.5q-35 4 -59 20t-35 44q-17 38 -6.5 89.5t44.5 106.5q16 26 38.5 52t50 49t60 40.5t68.5 26.5q-9 13 -18 30.5t-15 37t-7 39.5t7 40q30 72 176 86h1q2 0 21 -1t43 -6.5t48.5 -18t36.5 -34.5q26 -49 -23 -122v-1l-1 -1q-1 -1 -11.5 -10.5t-36 -20.5
t-67.5 -21.5t-106 -13.5h-6q4 -9 -3 -16t-17 1q0 1 -2.5 3.5t-5.5 7.5q-35 -8 -66 -24.5t-58 -38.5t-49 -47t-38 -49q-29 -50 -39.5 -96t3.5 -78q11 -27 33.5 -38t41.5 -13q33 -5 72 3.5t79 31.5q90 47 165 139q37 51 65 86.5t46 55.5q7 8 11 13t7 9q4 2 9 5.5t11 -1.5
q10 -3 6 -15q-2 -5 -10 -7q-2 -2 -9 -10.5t-21.5 -26.5t-38 -48t-58.5 -76q-37 -47 -80.5 -84t-90.5 -61q-38 -20 -74 -30t-68 -10zM412 644q-65 -7 -104 -24.5t-51 -47.5q-7 -18 -5.5 -36.5t8.5 -36.5t16.5 -33.5t17.5 -26.5q5 1 9 1h10q57 3 95 12t62 18t35 17t13 10
q39 61 20 98q-9 17 -29 26.5t-40 14.5t-37 6.5t-20 1.5z" />
    <glyph glyph-name="quotesingle" unicode="'" horiz-adv-x="108" 
d="M19 415q3 78 8 123.5t5 47.5q2 10 10 10q9 0 9 -9q1 -11 2 -25t3 -27.5t5 -24t6 -14.5q5 -7 -2 -14q-9 -5 -14 2l-2 4q-1 -27 -2 -38.5t-1.5 -14t-2 0t-2 3.5t-1.5 -3.5t-2 -21.5q0 -9 -10 -9q-9 0 -9 10z" />
    <glyph glyph-name="parenleft" unicode="(" horiz-adv-x="374" 
d="M287 -138h-1l-5 1q-13 2 -32.5 6t-42 11.5t-47 20t-47.5 32.5q-55 44 -80 111q-31 77 -25 189q9 113 57 198q19 36 45 66.5t56 56.5q27 22 52 37t44.5 24.5t32 14t13.5 5.5q10 2 12 -11q2 -6 -0.5 -11t-7.5 -7l-11.5 -4t-30.5 -13t-43 -23t-49 -35q-66 -56 -102.5 -131.5
t-43.5 -169.5q-5 -68 5.5 -118t30 -85.5t46 -59.5t54.5 -38.5t54.5 -22t45.5 -11.5l-8 24q-3 12 6 21q12 2 16 -8l16 -51q3 -6 -1 -14q-3 -5 -9 -5zM287 -138h-1l-5 1q-13 2 -32.5 6t-42 11.5t-47 20t-47.5 32.5q-55 44 -80 111q-31 77 -25 189q9 113 57 198q19 36 45 66.5
t56 56.5q27 22 52 37t44.5 24.5t32 14t13.5 5.5q10 2 12 -11q2 -6 -0.5 -11t-7.5 -7l-11.5 -4t-30.5 -13t-43 -23t-49 -35q-66 -56 -102.5 -131.5t-43.5 -169.5q-5 -68 5.5 -118t30 -85.5t46 -59.5t54.5 -38.5t54.5 -22t45.5 -11.5l-8 24q-3 12 6 21q12 2 16 -8l16 -51
q3 -6 -1 -14q-3 -5 -9 -5zM287 -138h-1l-5 1q-13 2 -32.5 6t-42 11.5t-47 20t-47.5 32.5q-55 44 -80 111q-31 77 -25 189q9 113 57 198q19 36 45 66.5t56 56.5q27 22 52 37t44.5 24.5t32 14t13.5 5.5q10 2 12 -11q2 -6 -0.5 -11t-7.5 -7l-11.5 -4t-30.5 -13t-43 -23t-49 -35
q-66 -56 -102.5 -131.5t-43.5 -169.5q-5 -68 5.5 -118t30 -85.5t46 -59.5t54.5 -38.5t54.5 -22t45.5 -11.5l-8 24q-3 12 6 21q12 2 16 -8l16 -51q3 -6 -1 -14q-3 -5 -9 -5z" />
    <glyph glyph-name="parenright" unicode=")" horiz-adv-x="276" 
d="M29 -130h-14q-5 0 -8 6q0 2 -1.5 10t-1 20t5.5 27t17 31q6 11 13 0q6 -11 0 -21q-12 -14 -15 -27t-2 -21h6q86 0 136 154q11 32 17.5 62.5t11.5 55.5q5 29 8 55q12 157 -70 276q-16 24 -31 42t-27 30q-14 14 -27 24q-8 6 -4 18q2 3 5 5.5t7 -1.5l8.5 -6t21 -18t28.5 -30
t32 -43q20 -29 34.5 -59.5t24.5 -64.5q22 -83 16 -174q0 -2 -1.5 -18.5t-6 -41.5t-11.5 -56.5t-17 -64.5q-14 -39 -29.5 -70.5t-32.5 -53.5q-42 -46 -93 -46z" />
    <glyph glyph-name="asterisk" unicode="*" horiz-adv-x="435" 
d="M203 427q-6 0 -9 5q-21 36 -8 175q2 25 5 48.5t5.5 41.5t4.5 29l2 11q2 10 11 8q8 -2 8 -11l-2 -11t-4.5 -29t-5.5 -41t-5 -48q-4 -44 -4.5 -73t1 -48t4 -28.5t5.5 -13.5q4 -7 -3 -13q-4 -2 -5 -2zM30 580q-10 0 -10 9q0 10 9 10l344 18q8 0 10 -9q0 -10 -9 -10zM303 504
q-1 0 -5 2q-14 7 -38 25t-52 41.5t-56.5 48.5t-52.5 46.5t-40 36t-18 16.5q-7 5 -1 13q7 7 14 1q0 -1 15.5 -14.5t39 -35t52.5 -46.5t57 -48.5t51.5 -42t37.5 -25.5q10 -4 4 -12q-3 -6 -8 -6zM59 502q-7 0 -9 7q-3 9 5 12q16 6 43 22.5t57.5 38t62 44.5t57 42.5t41.5 32
t17 13.5q7 5 14 -2q6 -7 -2 -13q-2 -2 -19 -15.5t-43 -33t-57.5 -42.5t-62 -44.5t-57.5 -38t-44 -22.5q-1 0 -1.5 -0.5t-1.5 -0.5z" />
    <glyph glyph-name="plus" unicode="+" horiz-adv-x="680" 
d="M198 31q-5 -2 -8 1q-10 9 -5 21q16 34 42.5 90t57.5 121t63.5 131.5t59.5 120.5q-2 -2 -6 -3q-5 -3 -9.5 0t-6.5 8t-0.5 10.5t6.5 7.5q7 3 17 15t21.5 27.5t22 33t18.5 31.5q3 5 8.5 6.5t8.5 -0.5q5 -3 6.5 -9t-0.5 -11q-1 -1 -18 -36t-43.5 -89.5t-59 -121.5t-64 -132.5
t-59 -122.5t-43.5 -91q-2 -6 -9 -8zM24 291q-13 0 -13 13q-1 6 3 10.5t9 4.5q14 1 32.5 4t36 7t31.5 9t20 10q5 3 10.5 2t7.5 -6q7 -10 -2 -20l-2 -2l-3 -3q55 1 121.5 2t131.5 1.5t121 1t90 0.5q5 0 9 -5t4 -10q0 -6 -4 -10.5t-9 -4.5h-92t-122.5 -0.5t-132.5 -1t-121.5 -1
t-89.5 -1t-36 -0.5z" />
    <glyph glyph-name="comma" unicode="," horiz-adv-x="116" 
d="M88 44v-8.5t-1 -8.5q-5 -12 -15 -20t-24 -9q-17 -2 -31 10t-16 29q-1 18 10.5 31.5t30.5 14.5q17 2 31 -10t15 -29zM88 31q-17 -29 -38 -54q-18 -21 -43 -40t-55 -24q25 16 45 36q17 17 31 41t14 53q-1 28 6 29.5t16 -7.5q11 -11 24 -34z" />
    <glyph glyph-name="hyphen" unicode="-" horiz-adv-x="510" 
d="M15 239q-9 0 -9 9q-2 10 8 10q11 1 25 2.5t27 4t23.5 6t14.5 6.5q9 5 14 -2q6 -7 -2 -13q-2 -2 -4 -3q41 0 91 0.5t98.5 1t90.5 1t68 0.5q9 0 9 -10t-9 -10h-68.5t-91.5 -0.5t-99.5 -1t-91.5 -0.5t-67 -0.5t-27 -0.5z" />
    <glyph glyph-name="period" unicode="." horiz-adv-x="216" 
d="M48 2q-12 0 -19 6q-14 11 -12 35t19 48q13 17 28.5 26.5t29.5 9.5q11 0 19 -6q15 -11 13 -34.5t-20 -47.5q-12 -17 -28 -27t-30 -10zM94 108q-8 0 -19.5 -7t-22.5 -21q-14 -18 -16.5 -34.5t5.5 -21.5q3 -3 7 -3q8 0 20 7t23 22q13 18 15.5 34.5t-4.5 21.5q-2 2 -8 2z" />
    <glyph glyph-name="slash" unicode="/" horiz-adv-x="425" 
d="M2 -8q-3 0 -4 1q-4 1 -5.5 5t0.5 7q12 25 30.5 62.5t40.5 82t46 93.5t48 97.5t47 94t41 83.5q-7 -7 -13.5 -13t-12.5 -8q-10 -3 -12 5q-2 4 -0.5 7t3.5 4q9 4 24 23.5t30.5 43t29.5 46t20 33.5q2 3 6 4t6 -2q5 -1 6 -4.5t0 -7.5q-1 -1 -12.5 -23.5t-30 -60t-43 -86.5
l-51.5 -103t-54.5 -110t-52.5 -106.5t-45.5 -93t-33.5 -69.5q-2 -5 -8 -5z" />
    <glyph glyph-name="zero" unicode="0" horiz-adv-x="457" 
d="M183 6q-9 0 -17.5 1.5t-17.5 3.5q-53 19 -74 69q-11 25 -13.5 56t0.5 69q4 30 11 64t18 70q16 51 32 89.5t24 55.5q-7 -2 -13.5 -4t-12.5 -4q-65 -25 -100 -99q-2 -4 -6.5 -5.5t-8.5 0.5q-5 2 -6.5 6.5t0.5 8.5q24 50 56 75.5t57 35.5q27 10 46 11.5t22 0.5q57 1 99 -25
q40 -26 60 -71q17 -38 21.5 -86.5t-5.5 -102.5q-10 -52 -30 -96.5t-47 -74.5q-31 -31 -60 -42q-18 -6 -35 -6zM172 487q-1 -1 -1 -1.5t-1 -1.5q0 -1 -9.5 -22t-22 -54t-26 -75t-22 -85.5t-8.5 -84.5t13 -73q18 -44 60 -57q17 -5 28 -5q25 0 44.5 13.5t33.5 27.5
q25 28 43.5 69t27.5 87.5t6.5 93t-20.5 85.5q-38 86 -138 83h-1h-7z" />
    <glyph glyph-name="one" unicode="1" horiz-adv-x="371" 
d="M201 45q-14 0 -16 14q-3 29 -3 85t2 122q-28 -32 -55.5 -56.5t-49 -41t-35.5 -25.5l-14 -9q-7 -2 -13 1t-8 10q-2 6 0.5 12t9.5 8q3 1 23 10t46 30t53.5 55t44.5 86q2 42 6 81t7 69.5t3 50t-5 23.5t2 9.5t14 6.5q5 0 10 -4t6 -10q12 -71 8 -127.5t-18 -101.5
q-2 -42 -3 -84.5t-1.5 -80t0 -68t2.5 -47.5q2 -16 -14 -18h-2zM97 9q-6 0 -2.5 10t2.5 17t3.5 11.5t10.5 5.5l155 4q7 1 15 2.5t9 -5.5q0 -6 -4 -11t-11 -6l-152 -28h-26z" />
    <glyph glyph-name="two" unicode="2" horiz-adv-x="424" 
d="M110 -7q-78 0 -93 32q-5 10 -3.5 19.5t5 17t7.5 13t5 6.5t10 16t23 38.5t31.5 51.5t35 55.5t33 51.5t26.5 38q31 40 44 76.5t-7 55.5q-6 5 -23 1t-42.5 -17t-57 -35.5t-64.5 -55.5q-4 -4 -10 -3.5t-10 5.5q-4 4 -3.5 10t4.5 10q21 18 54.5 44.5t68 48t65.5 31t47 -5.5
q19 -17 20 -40.5t-8 -49t-24.5 -50t-29.5 -43.5q-11 -14 -28 -38.5t-37 -53t-40 -58t-35.5 -53t-25 -37.5t-7.5 -11q-5 -11 -5 -15.5t3 -9.5q1 -3 31.5 -10.5t81.5 -5.5l130 5q7 1 17 5t15 12q2 2 2.5 4t-1.5 8q-3 6 3 12.5t11 8.5q6 3 11.5 0.5t7.5 -8.5q5 -14 3.5 -24.5
t-5.5 -16.5q-6 -9 -16 -15t-19.5 -9.5t-17.5 -4.5t-10 -1l-159 -5h-14z" />
    <glyph glyph-name="three" unicode="3" horiz-adv-x="465" 
d="M160 3q-13 0 -28.5 1.5t-32 5.5t-33 11t-29.5 18q-37 32 -38 84q0 9 7 13q7 5 14 0q19 -10 36 -19t22 -11q5 -1 8.5 -4.5t3.5 -8.5q1 -6 -3.5 -10.5t-10.5 -5.5q-2 0 -11.5 5t-37.5 20q2 -11 11.5 -22t17.5 -18q17 -15 40 -21.5t44 -8t35.5 0l14.5 1.5q126 9 168 71
q12 17 16 34.5t5 32t-1 25.5t-2 14q-18 32 -43.5 51.5t-53 30.5t-55 14.5t-49.5 3.5t-36 -1.5l-14 -1.5q-5 -2 -9.5 1t-6.5 8q-3 11 7 18q24 13 49 30t48.5 35t44.5 35t36 30q-67 -4 -118.5 -3t-87 2.5t-54.5 1t-20 -7.5q-1 -3 -3.5 -0.5t-5 7.5t-4.5 10.5t-1 8.5q0 6 5 10
t11 3l21.5 -2t62.5 -3.5t100 -1t135 6.5q5 1 9 -1.5t5 -6.5q4 -9 -3 -18q-2 -1 -20.5 -15.5t-47 -35t-62 -44.5t-64.5 -45q24 0 56.5 -4.5t66.5 -16t67.5 -32.5t59.5 -55q1 0 1 -3q0 -1 3 -13t3 -30.5t-5.5 -41.5t-20.5 -46q-52 -75 -190 -84q-1 0 -10 -1t-23 -1z" />
    <glyph glyph-name="four" unicode="4" horiz-adv-x="499" 
d="M120 239q-89 0 -110 36q-6 12 -6 24.5t3 24.5t8.5 23.5t10.5 21.5q14 23 23 45t14 39q6 19 10 37q3 15 19 13q5 -1 9 -6.5t2 -10.5q0 -1 -2.5 -12t-8 -29.5t-15.5 -42t-25 -49.5q-13 -22 -21.5 -40.5t-2.5 -26.5q5 -8 26 -12.5t66 -4.5q36 0 57.5 8.5t33 18.5t15 19
t3.5 10q1 3 5 9.5l8 13t8.5 10.5t7.5 3h6h10.5t10 -2t4.5 -6q1 -5 -2.5 -12t-8 -13.5t-9 -12.5t-4.5 -7t-6 -12t-22 -23.5t-44 -23t-73 -10.5zM181 0q-6 0 -10 4q-7 6 -7.5 14t2.5 19.5t7 26.5t6 35q1 10 9.5 41.5t22 76t30.5 98.5t35 109t35.5 108t31.5 94.5t23 68.5t11 32
t1 9t4 2q6 -2 9 -7.5t1 -10.5q-13 -40 -31 -99t-38 -124.5t-40 -132t-36.5 -122.5t-27 -95.5t-11.5 -49.5q-2 -38 2 -52t10 -19q5 -4 5.5 -10.5t-3.5 -9.5q-1 -2 -7 -3t-13 -1.5t-13 -1t-8 -0.5z" />
    <glyph glyph-name="five" unicode="5" horiz-adv-x="662" 
d="M586 426q-1 0 -4.5 5.5t-5.5 5.5q-90 17 -171.5 24t-149 7t-118.5 -4.5t-78 -10.5q-13 -3 -20 -6q-4 -2 -8 -3q-8 -1 -12 3.5t-6 18.5q-2 8 2.5 13t12.5 7q1 0 46.5 4.5t122 5t178 -6t213.5 -27.5q8 -2 12 -8t2 -13q-1 -6 -5.5 -10.5t-10.5 -4.5zM177 -7q-21 0 -40.5 2.5
t-36.5 10.5q-15 7 -29 13.5t-24 14.5t-16.5 19t-6.5 26q0 3 3 9t7.5 11.5t9.5 9.5t8 4q7 1 8 -4.5t1 -12.5q1 -21 16.5 -34.5t35.5 -22.5q24 -10 54.5 -11.5t62 5t60 19.5t48.5 31q41 37 26 84q-16 46 -57 65q-31 15 -68 14.5t-69 -7t-54 -14.5t-23 -8q-5 -2 -11 1.5t-9 8.5
q-9 9 -2 20l131 223q3 6 10 8t13 -2q14 -8 7 -24l-118 -192q19 5 44.5 10.5t54 7.5t57 -0.5t52.5 -13.5q55 -25 75 -86q21 -68 -35 -121q-32 -31 -83.5 -47.5t-101.5 -16.5z" />
    <glyph glyph-name="six" unicode="6" horiz-adv-x="394" 
d="M116 0h-8q-7 1 -16 3.5t-18 9.5t-17 18.5t-14 29.5q-5 -5 -11 -5t-11 5q-20 17 -14 45q3 15 14 30.5t28 30.5q12 38 34.5 76.5t49 74.5t54.5 67.5t51 55.5t39 39t18 17q5 5 12 4.5t12 -5.5t6 -13.5t-4 -13.5q-1 0 -29 -24t-66.5 -62.5t-78 -86.5t-63.5 -97q11 5 29 11.5
t29 10.5q35 11 64.5 7t49.5 -23q17 -17 19.5 -40.5t-10.5 -51.5q-9 -21 -25.5 -41.5t-37 -36t-43 -25.5t-43.5 -10zM77 148q-5 -19 -12 -38t-4 -35q4 -15 11 -23.5t14.5 -12.5t14.5 -5t10 -1q15 -1 34 6t38 19.5t35 29.5t25 36q3 6 5 15t2.5 18.5t-1.5 18t-8 13.5
q-18 17 -43 17.5t-41 -4.5q-21 -6 -43 -24t-37 -30z" />
    <glyph glyph-name="seven" unicode="7" horiz-adv-x="540" 
d="M201 446q-55 0 -90.5 5t-57.5 11t-31.5 11.5t-11.5 7.5q-5 4 -5.5 11t4.5 13q9 9 22 2q0 -1 3 -6t13 -11t30.5 -12.5t56 -9.5t90 -1t132.5 12q7 1 11.5 1t5.5 -7q2 -15 -14 -17q-48 -5 -87 -7.5t-71 -2.5zM170 0h-5q-6 2 1 10.5t9 14.5l85 325q-3 -1 -9 1q-6 3 -8 9.5
t1 11.5l61 119q7 12 21 7q5 -2 12.5 -9.5t5.5 -12.5l-149 -468q-2 -5 -11 -6.5t-14 -1.5zM79 232q-5 0 -6.5 8.5t-2.5 13.5q-1 8 7.5 12t15.5 5q2 0 30 1.5t71 2.5t97 1t108 -3q7 0 11 -5.5t3 -12.5q-1 -6 -6 -10.5t-12 -3.5q-53 7 -107.5 8t-98.5 -0.5t-72.5 -4.5t-29.5 -3
q-2 -3 -4 -5z" />
    <glyph glyph-name="eight" unicode="8" horiz-adv-x="615" 
d="M301 256q-5 0 -8 1q-7 0 -14 0.5t-14 1.5q-17 1 -33 2.5t-30.5 4.5t-26 8.5t-20.5 15.5q-18 24 -15 64q2 35 14.5 58.5t27.5 32.5l25 12.5t25.5 10.5t23 5t16.5 -3q5 -2 8.5 -10t1.5 -12q-2 -5 -6 -6t-7 1q-8 5 -28 -0.5t-40 -16.5q-12 -7 -25 -26t-15 -48q-3 -31 11 -47
q13 -14 38 -20.5t57 -8.5q7 -1 13.5 -1.5t14.5 -0.5q26 1 47 17t32 42q12 29 4.5 59.5t-33.5 56.5q-23 22 -52 24t-59.5 -8t-59.5 -28t-52 -35.5t-37.5 -31l-14.5 -13.5q-7 -5 -16 0q-6 9 1 16l9.5 9.5t23.5 20.5t34.5 26.5t42.5 28.5q56 31 99 37q57 6 96 -30
q33 -33 39 -72q5 -17 3 -35t-9 -35q-13 -30 -38 -48.5t-54 -18.5zM128 12q-32 5 -58.5 16t-43.5 30q-12 13 -20 35.5t2 57.5q11 42 38 67t60.5 37.5t69.5 15t66.5 0.5t51 -6t23.5 -5q5 -1 11.5 3.5t7.5 0.5q54 13 91 2t66 -31q15 -10 23.5 -22t13 -22.5t6 -18t1.5 -8.5v-16
q-7 -44 -34 -70t-60.5 -41t-67 -20.5t-53.5 -8.5q-5 -1 -9 -1.5t-6 -1.5q-5 -1 -23 -2t-42.5 -1t-54.5 2.5t-59 7.5zM280 232q-25 4 -61.5 5.5t-73 -6t-66 -28.5t-40.5 -61q-11 -37 10 -61q19 -21 57 -31.5t78 -13.5t73 -1.5t43 3.5q3 1 7.5 1.5t10.5 2.5q18 2 47 8.5t58 20
t52.5 36t29.5 55.5q-1 3 -2 8.5t-4 13t-8 15t-14 13.5q-9 7 -24 12.5t-37 6.5t-52 -4t-70 -18q-3 -1 -10 -2.5t-14 -2.5t-12.5 -0.5t-6.5 4.5q-1 3 2 6.5t8 7t10.5 6.5t8.5 4z" />
    <glyph glyph-name="nine" unicode="9" horiz-adv-x="332" 
d="M108 263q-26 0 -47.5 10t-35.5 28q-8 12 -13 31t4 46q17 51 48 78t76 27q52 0 79.5 -24.5t27.5 -71.5q0 -25 -8.5 -43.5t-22 -32t-31 -23.5t-35.5 -17q-19 -8 -42 -8zM140 457q-69 0 -99 -88q-11 -31 5 -51q10 -13 26 -21t36 -8q17 0 31 6q45 19 63.5 40t18.5 52
q0 70 -81 70zM207 4q-13 0 -13 9l-16 37l7 89l22 350q1 10 15 10q5 0 8.5 -7t3.5 -12l-14 -468q0 -8 -13 -8z" />
    <glyph glyph-name="colon" unicode=":" horiz-adv-x="218" 
d="M89 374q-12 0 -19 6q-14 11 -12 35t19 48q13 17 28.5 26.5t29.5 9.5q11 0 19 -6q15 -11 13 -34.5t-20 -47.5q-12 -17 -28 -27t-30 -10zM135 480q-8 0 -19.5 -7t-22.5 -21q-14 -18 -16.5 -34.5t5.5 -21.5q3 -3 7 -3q8 0 20 7t23 22q13 18 15.5 34.5t-4.5 21.5q-2 2 -8 2z
M39 5q-12 0 -19 6q-14 11 -12 35t19 48q13 17 28.5 26.5t29.5 9.5q11 0 19 -6q15 -11 13 -34.5t-20 -47.5q-12 -17 -28 -27t-30 -10zM85 111q-8 0 -19.5 -7t-22.5 -21q-14 -18 -16.5 -34.5t5.5 -21.5q3 -3 7 -3q8 0 20 7t23 22q13 18 15.5 34.5t-4.5 21.5q-2 2 -8 2z" />
    <glyph glyph-name="semicolon" unicode=";" horiz-adv-x="208" 
d="M71 342q-12 0 -19 6q-14 11 -12 35t19 48q13 17 28.5 26.5t29.5 9.5q11 0 19 -6q15 -11 13 -34.5t-20 -47.5q-12 -17 -28 -27t-30 -10zM117 448q-8 0 -19.5 -7t-22.5 -21q-14 -18 -16.5 -34.5t5.5 -21.5q3 -3 7 -3q8 0 20 7t23 22q13 18 15.5 34.5t-4.5 21.5q-2 2 -8 2z
M88 44v-8.5t-1 -8.5q-5 -12 -15 -20t-24 -9q-17 -2 -31 10t-16 29q-1 18 10.5 31.5t30.5 14.5q17 2 31 -10t15 -29zM88 31q-17 -29 -38 -54q-18 -21 -43 -40t-55 -24q25 16 45 36q17 17 31 41t14 53q-1 28 6 29.5t16 -7.5q11 -11 24 -34z" />
    <glyph glyph-name="less" unicode="&#x3c;" horiz-adv-x="374" 
d="M212 81q-3 0 -6 3q-9 8 -21.5 17.5t-24.5 17.5t-22.5 14t-16.5 7q-9 2 -9 10q1 3 4 6t7 2q8 -1 17.5 -6t20.5 -13q-15 18 -32.5 39.5t-36.5 43.5t-38.5 43t-37.5 39q-4 7 0 13q7 5 13 -1q30 -30 63.5 -68.5t61.5 -72t46.5 -56.5l18.5 -23q4 -7 -1 -12q-3 -3 -6 -3z
M15 310q-3 0 -7 4q-4 5 1 13q32 27 72.5 64.5t77.5 72.5q2 6 11 19t39 36q17 14 30 23t14 11q6 6 12 -2q4 -8 -1 -11q-1 -1 -13 -12.5t-32 -30.5t-45.5 -43t-52 -49t-53 -49t-47.5 -43q-3 -3 -6 -3z" />
    <glyph glyph-name="equal" unicode="=" horiz-adv-x="514" 
d="M431 430h-1q-24 1 -63.5 2.5t-85 3t-92 3t-84.5 3t-62.5 2t-25.5 0.5q-8 0 -8 9q0 8 8 10q10 0 23 1.5t25 3t22 4.5t14 6q7 6 13 -2q4 -8 -2 -13q-2 -2 -4 -3q38 -1 84.5 -2.5t91.5 -3t84 -3.5t63 -3q4 0 7 -2.5t2 -6.5q0 -9 -9 -9zM431 258h-1q-22 1 -58.5 2.5t-79 3
t-87 2.5t-82.5 3q-5 -3 -18.5 -5t-42.5 1q-18 2 -31.5 4.5t-14.5 2.5q-10 2 -7 10q0 9 9 9q1 0 30 -1t73 -2q38 -1 82.5 -2.5t87.5 -3t80 -3t60 -2.5q4 0 7 -3t2 -7q0 -9 -9 -9z" />
    <glyph glyph-name="greater" unicode="&#x3e;" horiz-adv-x="329" 
d="M258 315q-4 0 -7 3q-31 32 -65 71.5t-63 74t-48.5 58t-19.5 24.5q-4 7 1 12q6 6 12 0q10 -8 22.5 -17.5t25 -18.5t23.5 -15t17 -7q9 -2 9 -10q-2 -9 -10 -7q-8 1 -18.5 5.5t-21.5 11.5q15 -18 33.5 -39.5t38 -44t39.5 -44.5t38 -41q6 -7 0 -13q-3 -3 -6 -3zM15 73
q-4 0 -7 3q-5 7 1 13l12.5 12t33 31t47 44t54 51t54.5 51t49 44q7 5 14 0q4 -8 -1 -13q-32 -29 -74.5 -68t-80.5 -75q-2 -6 -11 -19t-40 -39q-18 -14 -31.5 -23.5t-14.5 -9.5q-4 -2 -5 -2z" />
    <glyph glyph-name="question" unicode="?" horiz-adv-x="698" 
d="M116 158q-1 0 -1 1q-4 1 -9.5 7.5t-3.5 10.5l44 168q0 2 2 10t3 10q5 2 8 0l16.5 -7t43 -16t60.5 -18t71 -13q32 -3 66.5 -5.5t66.5 2t59 19.5t44 46q9 17 10 37.5t-16 43.5q-26 32 -74 60t-111 48q-66 21 -125 25t-106 -9q-42 -11 -59 -32.5t-21 -61.5q-1 -3 -9 -5.5
t-12 -1.5q-3 1 -5.5 3.5t-1.5 5.5q10 90 107 119q48 14 111.5 9t131.5 -27q66 -20 117.5 -51t78.5 -66q42 -55 12 -105q-17 -30 -42 -50t-66 -28q-32 -8 -74.5 -8t-87.5 6q-30 4 -58.5 10.5t-52 13.5t-41.5 13l-27 9l-40 -166q-2 -7 -9 -7zM68 -14q-23 0 -39.5 10.5
t-17.5 27.5q-2 19 14.5 33.5t43.5 17.5q4 1 10 1q24 0 40.5 -10.5t18.5 -27.5q2 -19 -15 -33.5t-44 -17.5q-3 -1 -11 -1zM79 58h-8q-19 -2 -32 -11.5t-11 -20.5q1 -10 12.5 -16t27.5 -6q7 0 9 1q19 2 32 11t11 20q-2 10 -13 16t-28 6z" />
    <glyph glyph-name="at" unicode="@" horiz-adv-x="648" 
d="M279 139q-27 0 -51.5 10t-43 27.5t-29 40.5t-10.5 50t10.5 50.5t29 41t43 27.5t51.5 10t51.5 -10t42.5 -27.5t28.5 -41t10.5 -50.5t-10.5 -50t-28.5 -40.5t-42.5 -27.5t-51.5 -10zM279 380q-25 0 -46.5 -9t-38 -24.5t-26 -36t-9.5 -43.5t9.5 -43.5t26 -35.5t38 -24
t46.5 -9t46.5 9t37.5 24t25.5 35.5t9.5 43.5t-9.5 43.5t-25.5 36t-37.5 24.5t-46.5 9zM410 130h-22l10 236q0 4 5 9t10 5t10 -3t5 -8v-218q0 -6 -6.5 -13.5t-11.5 -7.5zM298 -72q-14 0 -32.5 1t-41.5 4q-27 5 -51.5 13.5t-44.5 19.5q-55 29 -86 81q-17 30 -27 68t-10 83
q-1 48 6.5 91.5t21.5 85.5q13 38 32 72t43 63q46 56 105.5 92t123.5 47q58 8 114.5 -14.5t98.5 -72.5q47 -57 64 -131.5t0 -156.5q-10 -49 -27 -80t-37.5 -48.5t-42.5 -24t-42 -6.5q-7 0 -14 0.5t-13 1.5q-2 0 -8.5 1.5t-14.5 7.5q-8 7 -16 21t-10 40q-2 8 6 8q3 1 6 -1.5
t3 -5.5q2 -20 7.5 -31t11.5 -16.5t11 -6.5l5 -1h1q21 -4 42.5 -2.5t41 15.5t35.5 43t27 81q16 78 2 151.5t-59 127.5q-79 91 -187 74q-59 -10 -115.5 -43t-100.5 -87t-70.5 -128.5t-25.5 -167.5q1 -79 24.5 -126.5t61.5 -73.5t85 -34.5t94 -8.5q22 0 60.5 4.5t79.5 20.5
q32 12 68 32t59 58q2 2 8.5 3t8.5 -1q7 -4 1 -12q-23 -37 -60.5 -62t-78.5 -40.5t-79.5 -22t-63.5 -6.5zM168 311q0 -3 -1 -4q0 -1 -0.5 -2t-0.5 -2q-1 -3 -1 -7q0 -5 -2 -15q-2 -16 1 -29q2 -14 8 -27l1 -3l2 -3l2 -4l1 -1q2 -3 4.5 -5.5t4.5 -5.5h2l1 -1l1 -2l1 -1l6 -3
q1 -2 5 -4q2 -1 3 -1t3 -1q13 -5 25 -5q14 -2 26 3q6 2 12.5 5t11.5 7q14 10 21 20q5 5 8.5 11.5t7.5 12.5q1 4 2 7.5t2 6.5q1 4 2 7t2 7q2 8 2 15v14q0 8 -1.5 14l-3.5 14q-5 15 -14 23q-4 5 -8.5 8.5t-9.5 8.5q-6 0 -12 4q-4 2 -13 2h3h-1h-2h-1h-4q-2 -1 -3.5 -1t-2.5 -1
q-4 -2 -7 -3t-8 -1l-5 -3q-2 -1 -3.5 -2t-3.5 -1q-6 -2 -7 -3q-2 -2 -3.5 -2.5t-2.5 -2.5q-2 0 -3 -1t-3 -2l-5 -5q-5 -2 -6 -6q-2 -1 -2.5 -2t-2.5 -3q-1 -2 -2 -3t-2 -3q-1 -1 -1 -4q-2 -2 -2 -3q-3 -3 -3 -7q-2 -6 -2 -8h-1q0 -1 -2 -1v1v3v4l2 2q0 4 2 8q0 1 0.5 2
t0.5 2v4q2 2 3 4q0 3 2 3q1 5 3.5 8.5t4.5 6.5l6 6t7 6q3 2 6 4.5t7 4.5q4 1 7 4q2 1 3.5 1.5t2.5 1.5q4 2 8 3t7 3q6 2 8 2q2 1 4 1h2h1h3q16 0 29 -8q3 -1 6 -4t4 -3l1 -1v-1h1l7.5 -6t5.5 -6q5 -7 8.5 -14t5.5 -16q2 -8 3.5 -16t0.5 -16q0 -9 -1 -16t-4 -15
q-2 -7 -5 -14.5t-7 -14.5t-8 -13t-9 -13q-10 -10 -22 -19q-6 -5 -11.5 -8.5t-12.5 -6.5q-8 -3 -14.5 -5t-14.5 -3q-7 0 -14 0.5t-14 2.5q-8 2 -15 7q-5 2 -5 4l-2 2l-3 1h-1v1l-2 1q-2 4 -4.5 6.5t-4.5 6.5l-3 3q-1 0 -1 4q0 1 -2 3l-2 4q-4 8 -5.5 16t-2.5 16t0 15.5
t3 15.5q1 5 2 8.5t1 5.5q3 4 3 5q2 2 2 3q1 2 1 4q0 1 2 3h1zM549 71q-3 11 0 20.5t11 11.5t15 -3.5t10 -17.5q2 -10 -1 -19.5t-11 -12.5q-16 -4 -24 21z" />
    <glyph glyph-name="A" unicode="A" horiz-adv-x="733" 
d="M596 11l-8 10t-9.5 11t-13.5 13q-7 8 -14.5 16t-17.5 16q-11 8 -21 15.5t-22 14.5q-11 8 -22.5 14t-23.5 11q-6 3 -11.5 5t-10.5 4t-10.5 4t-10.5 2q-10 4 -18 5.5t-13 3.5q-4 0 -5.5 0.5t-3.5 0.5h-3h12q5 0 14 -0.5t18 -2.5q6 0 11.5 -1t10.5 -3q7 -2 12.5 -3t12.5 -4
q5 -3 11.5 -5.5t11.5 -5.5q7 -4 12.5 -7t12.5 -7q23 -15 42 -33t32 -35q6 -8 10.5 -15t8.5 -12q2 -3 2.5 -5t1.5 -4t2 -3zM111 157h560q7 0 11.5 -1.5t4.5 9.5q0 9 -4.5 11.5t-11.5 2.5l-490 5l-36 11l-34 -5q-8 0 -13 -8t-5 -17q0 -10 5 -9t13 1zM606 -18q-6 0 -10 6
l-304 464l-260 -439q-5 -11 -18 -6q-4 3 -5 8.5t2 9.5l270 458q3 5 11 5q5 0 10 -5l315 -481q6 -11 -4 -18q-1 -2 -3 -2h-4z" />
    <glyph glyph-name="B" unicode="B" horiz-adv-x="823" 
d="M153 399q-11 -28 -22 -58q-10 -26 -23 -58.5t-26 -66.5q-7 -18 -13.5 -35.5t-14.5 -32.5q-5 -17 -12.5 -31.5t-14.5 -26.5q-11 -21 -21 -33q-3 -6 -5 -8q-1 -2 -2 -2l-4 1q-5 -2 -9 -3q-3 -1 -5.5 0t-0.5 5q0 4 4 10t9 13l10 14t7 13q4 14 8.5 28t12.5 29q8 16 16 32.5
t16 32.5q10 23 18.5 48.5t16 49.5t14.5 44t13 32q2 5 6.5 6.5t8.5 0.5t9 -3zM-51 33q30 0 62 -1q27 -1 59.5 -1.5t63.5 -1.5q63 -2 149 -6.5t192 0.5q26 2 53 4.5t56 6.5q29 5 57.5 10.5t54.5 19.5q8 3 8.5 6.5t2.5 9.5q5 7 6 13t3 12q3 16 -2 25t-14 20q-20 23 -41 34
t-53 23q-60 22 -127 34.5t-136 17.5q-71 6 -139 6q-18 -2 -36 -2t-35 -2t-34 -4.5t-30 -9.5q-1 0 -2.5 -1.5t-3.5 -2.5q1 0 1 1t-1 3q1 -1 3 -2q4 -2 7 -2q6 -3 14 -4t17 -1q17 0 34 2.5t34 3.5q35 5 69.5 11t69.5 14q34 5 66 15.5t61 24.5q16 6 30.5 14.5t23.5 20.5
q11 6 11 21v2v-2v2v2l-2 11q0 4 -1.5 5.5t-1.5 5.5q-7 11 -19.5 19.5t-25.5 14.5q-14 8 -29 12.5t-30 8.5q-31 7 -59.5 11t-59.5 7q-61 6 -118 7.5t-110 3.5q-53 0 -95 -3t-84 -7q-21 -2 -41.5 -4.5t-38.5 -5.5q-33 -7 -58 -19q-4 -4 -5.5 -8t5.5 -5q7 -3 6 -9t-13 -4l-14 2
t-14 9q-2 2 -2 7.5t2 9.5l6.5 6.5t7.5 4.5q56 35 144 41q44 7 92.5 10t101.5 3t110.5 -3t119.5 -8q31 -2 62 -7t63 -13q17 -3 32.5 -8.5t31.5 -12.5q15 -8 29.5 -19.5t25.5 -30.5q2 -5 4 -10.5t2 -8.5v-9l1 -4v-1v-1v-4q-1 -11 -6.5 -20.5t-10.5 -15.5q-14 -15 -29.5 -24
t-31.5 -17q-33 -14 -67 -24.5t-67 -17.5q-35 -7 -70 -12t-71 -10q-17 -1 -34.5 -2.5t-36.5 -1.5q-9 0 -19 1t-19 3q-5 2 -10 5t-10 11q-3 5 -1 10.5t5 8.5q4 5 8 8q20 8 37.5 10t34.5 6q20 1 38 1h36q35 0 70 -1t70 -5q70 -5 138 -16.5t131 -34.5q32 -12 61 -27.5t51 -42.5
q11 -13 17 -29.5t4 -34.5q-2 -8 -5.5 -16t-7.5 -15q-12 -14 -26 -20q-29 -13 -58 -19t-58 -10t-56.5 -5.5t-53.5 -3.5q-107 -4 -194.5 -1.5t-149.5 5.5q-31 2 -67 3t-67 2l-72 2z" />
    <glyph glyph-name="C" unicode="C" horiz-adv-x="561" 
d="M263 3q-54 0 -101.5 19.5t-83 53.5t-56.5 79t-21 96q0 52 21 97t56.5 78.5t83 53t101.5 19.5q81 0 148 -41q5 -5 5 -11q0 -4 -4 -12l-33 -25q-2 -2 -6 -3.5t-7 1.5q-8 3 -8 12l2 33v2q-23 9 -47 14t-50 5q-49 0 -91.5 -17.5t-74.5 -48t-50.5 -71t-18.5 -86.5t18.5 -86.5
t50.5 -70.5t74.5 -47t91.5 -17q48 0 91.5 17t77.5 49q3 3 8.5 3t9.5 -5q8 -10 0 -20q-38 -35 -85.5 -53t-101.5 -18z" />
    <glyph glyph-name="D" unicode="D" horiz-adv-x="723" 
d="M38 0l-29 9l20 34l150 385q2 4 7.5 7t10.5 0q5 -2 2.5 -9.5t-4.5 -11.5l-5 -24l-152 -362q-1 -3 2.5 -9t5.5 -11t1.5 -8t-9.5 0zM-66 30q-10 0 -13 11q0 5 2.5 14t6.5 11q8 2 17 -2.5t17 -2.5q180 28 299 60t193.5 62.5t111 58.5t50.5 48q7 8 10 16t5 13q2 6 1 11
q-2 35 -32.5 60.5t-72 42.5t-84.5 26t-70 12q-40 4 -90 4.5t-104 -1.5t-109 -6t-105 -8.5t-91.5 -9t-68.5 -8.5q-9 -2 -16.5 -5.5t-12.5 -8.5q-6 -5 -11 -11q-3 0 -6.5 2.5t-7 7t-6 8.5t-3.5 7q0 5 8 11t13 6q4 0 37.5 4.5t85 10.5t116 12.5t131.5 10.5t130.5 5t112.5 -4
q3 -1 24.5 -4t52 -10.5t65.5 -20t65 -30.5t51 -43.5t22 -58.5q2 0 1 -14.5t-17 -37.5q-18 -27 -61.5 -59t-125 -65t-208 -65t-311.5 -60h-2z" />
    <glyph glyph-name="E" unicode="E" horiz-adv-x="723" 
d="M33 -57h-3q-5 1 -8.5 6t-1.5 12q3 18 25.5 73.5t56 134t76 173.5t87 192t87 189.5t77 166t56.5 121t26 55.5q5 14 18 8q5 -2 7 -7t-1 -11q-1 -2 -21.5 -46.5t-54 -117t-76 -165t-87 -191t-88 -195.5t-78 -177t-57 -136.5t-25.5 -73.5q-6 -11 -15 -11zM1540 1040
q-191 0 -363.5 1.5t-321 3.5t-268.5 5t-206 5t-133.5 3.5t-49.5 1.5q-5 0 -9.5 4t-4.5 9t4.5 8.5t9.5 3.5q3 0 70 -2t186.5 -4.5t285 -5t365.5 -4.5t429 -2t474.5 3t502 9t511.5 17q17 0 17 -13q0 -7 -4.5 -10.5t-10.5 -3.5q-191 -9 -383.5 -14.5t-380.5 -8.5t-369.5 -4.5
t-350.5 -1.5zM198 1060q-5 0 -9.5 4t-4.5 10q0 7 4.5 11.5t9.5 4.5q70 2 112.5 4t65 3.5t30 2.5t8.5 1q5 2 8.5 -2t3.5 -9q3 -5 1 -17t-7 -13q-11 9 -38 13q-23 3 -67 2t-117 -15zM1094 -8q-179 0 -342.5 1t-304.5 2t-255.5 2.5t-196.5 2.5t-128 2t-48 1q-14 0 -14 14
q2 5 6 8.5t9 3.5q4 0 86.5 -1.5t227.5 -3t343 -3t432 -2t495 0.5t532 4.5t543 10t528 16.5q5 2 9 -1.5t4 -8.5q0 -8 -4 -11t-9 -6q-231 -9 -476 -15t-490.5 -9.5t-485.5 -5.5t-461 -2zM163 455q-5 0 -9.5 3t-4.5 6q0 6 4.5 11t9.5 5q140 11 222.5 15.5t125.5 5.5
q26 2 41.5 3.5t26.5 1.5h2q11 0 13 -3t2 -8q2 -10 -6.5 -12.5t-9.5 -2.5h-5q-9 0 -32 -1t-69.5 -4t-121.5 -8t-188 -12h-1z" />
    <glyph glyph-name="F" unicode="F" horiz-adv-x="909" 
d="M97 966q-11 0 -11 10q-2 5 1 8t8 5q1 0 38.5 5.5t116.5 13t202.5 15.5t296 13.5t397 7t505.5 -4.5q5 -1 8 -1t3 -3q0 -5 -5 -9.5t-10 -4.5q-281 1 -504.5 -2t-395.5 -8t-294.5 -11.5t-200.5 -12.5t-115 -10t-38 -4q-2 0 -2 -4v-3zM97 965q-5 0 -8 4.5t-3 9.5q0 4 3 8.5
t6 4.5q59 2 94 3.5t54 3.5q22 2 31 3t13 -10q1 -4 -1 -15t-5 -11q-1 0 -7 3t-25.5 5.5t-55.5 1t-96 -10.5zM68 508q-11 0 -11 10q0 11 11 11q359 11 534 12t176 1q12 0 12 -11t-12 -11h-4q-2 0 -6 0.5t-9 0.5q-49 0 -219.5 -3.5t-471.5 -9.5zM68 516q-2 0 -3.5 4.5t-1.5 8.5
t1.5 7.5t3.5 3.5q24 2 37 3l19.5 1.5t10.5 1.5t10 2q1 2 3 0t2 -6t-0.5 -13t-3.5 -9q-3 8 -13 11q-8 2 -23.5 0t-41.5 -15zM-216 -591h-3q-5 1 -7.5 5t-0.5 9q8 27 31 86t56.5 141t75 182t87 208t92.5 219t91.5 215t84 197t70 164t50 116t23.5 54q1 5 5 6.5t9 -0.5
q9 -6 6 -14q-1 -2 -18.5 -43t-47 -110t-69 -161.5t-84 -197.5t-92.5 -218t-94 -222.5t-88.5 -211.5t-76.5 -186t-57.5 -144t-31.5 -86q-2 -8 -11 -8z" />
    <glyph glyph-name="G" unicode="G" horiz-adv-x="1330" 
d="M245 7q-68 7 -111.5 24.5t-69.5 36t-37 34t-13 18.5q-22 64 5.5 140.5t88 159t146 167t179 163.5t186.5 149t169 123.5t127 86t59 37.5q61 40 108 62t82 31.5t59 9.5t39.5 -4t23 -10.5t9.5 -8.5q-1 0 0 -1q0 -2 4 -2q17 -45 14.5 -93t-16 -94.5t-34 -88t-40.5 -73.5
t-35 -51.5t-17 -22.5q-2 -2 -6.5 -4t-10 -3.5t-10 -1.5t-7.5 2q-2 1 -3.5 5.5t-2 10t0 11t1.5 8.5q4 6 9 18.5t9.5 28t7.5 32.5t4 31l-48 -88q-9 -12 -19 -2q-3 1 -1 5t5.5 9.5t7.5 10.5t6 7l49 91q2 5 10 9.5t13 2.5q2 0 3 -3.5t1.5 -8.5t0.5 -10v-7v-22.5t-5 -46.5
q19 28 39.5 63t33 74.5t13.5 83.5t-18 91q-4 3 -18.5 9.5t-45.5 4t-80 -21.5t-122 -68q-2 -1 -32.5 -21t-81 -55t-117 -82.5t-139.5 -104t-149 -119.5t-145.5 -129t-128 -132t-98 -129t-54.5 -120t2 -105q0 -1 14.5 -17t50 -34.5t95.5 -32t152 -10.5q57 1 130 13t164 37.5
t199 65.5t236 97q-1 3 -6 5.5t-10 2.5q-6 0 -12.5 -2t-14.5 -8q-2 -5 -8.5 -5t-9.5 5q-5 5 -5 11t5 8q22 23 50 19q18 -1 31 -11.5t16 -12.5l2 -6t-1 -7q0 -3 -3 -5t-5 -4q-166 -76 -300.5 -123t-241 -72t-187.5 -31t-141 0zM692 255v31q76 25 140 46q27 9 54.5 18.5
t51.5 17.5t42.5 15t27.5 12q17 8 31 22.5t24.5 30.5t18 30t10.5 21q3 6 9.5 17t14.5 20t15.5 11t10.5 -10q2 -7 -1.5 -24.5t-10.5 -39.5t-15.5 -46t-16.5 -44.5t-14 -35.5t-8 -18q-1 -2 -17 -37t-42 -94t-60 -138t-72.5 -168t-78.5 -183.5t-77.5 -185t-70.5 -172.5
t-57 -146.5t-38 -106t-12 -51.5q-5 -17 -8 -33q-2 -14 -3.5 -27.5t1.5 -21.5q4 -8 -2.5 -8.5t-14.5 2.5q-11 4 -24 10l288 758l173 421l46 125l76 135l-5 15l-11 -1l-19 -34l-36 -43l-62 -40l-155 -38z" />
    <glyph glyph-name="H" unicode="H" horiz-adv-x="639" 
d="M-483 -828l-24 12l776 1726l-10 63l106 161l20 -35l-868 -1927v0zM308 15l-37 -12l-4 29l57 91l334 769h26l-376 -877v0zM9 528l516 32l13 -26l-69 -23l-427 -16l-33 33v0z" />
    <glyph glyph-name="I" unicode="I" horiz-adv-x="347" 
d="M21 0q-2 0 -3 0.5t-3 0.5q-6 3 -7.5 8.5t-0.5 10.5q50 98 85 170.5t58.5 123.5t37 83t20 50.5t8.5 25t2 7.5q0 5 4 9t9 2q13 0 13 -13q0 -2 -1.5 -9t-8.5 -26t-20.5 -51.5t-37 -84.5t-59 -125.5t-85.5 -174.5q-3 -5 -11 -7z" />
    <glyph glyph-name="J" unicode="J" horiz-adv-x="659" 
d="M1039 1048q-139 0 -268.5 1t-242.5 2t-206.5 2.5t-160.5 2.5t-105 2t-39 1q-14 0 -14 14q0 15 14 15q2 0 49.5 -1t131 -2.5t198.5 -3t252 -3t291 -1.5t316 0.5t326.5 3t322.5 7.5q14 0 14 -15q0 -14 -14 -14q-213 -5 -433.5 -8t-431.5 -3zM17 1049q-5 0 -6.5 8t-1.5 15
q-2 4 0.5 10.5t7.5 6.5q43 3 69.5 5.5t40 4t18 2.5t4.5 2q11 0 11 -12v-9t-0.5 -11.5t-1.5 -10t-2 -4.5t-6 3.5t-20 5.5t-41.5 -0.5t-71.5 -15.5zM-518 -1057h-2q-1 0 -6.5 1.5t-13 6t-16 14t-15.5 24.5q-10 22 -11 60t14.5 97t53 142.5t105.5 197.5q-5 -6 -9.5 -10t-8.5 -7
q-11 -4 -17 6q-2 5 -1 11.5t5 9.5q9 4 23 18t32 34t38.5 45.5t41.5 52.5q29 43 59.5 85.5t62.5 87.5q21 28 32.5 43.5t17.5 22.5t9 7.5t6 -0.5q10 -3 13 -12q1 -6 -13.5 -30t-39 -58t-56 -75.5t-64.5 -81.5q-49 -70 -88 -134q-75 -123 -115.5 -209.5t-57 -145.5t-16 -93.5
t8.5 -52.5q8 -16 16.5 -22t12.5 -8q50 10 105 55.5t112 116.5t115 162t114 191.5t109 205t99 202t84.5 183t66.5 147.5q20 45 35.5 79t23.5 55q20 39 41 91t41 109.5t38.5 117.5t34.5 115.5t28.5 103.5t19.5 82q-8 -21 -15 -48q-1 -5 -6.5 -7.5t-10.5 -0.5q-6 2 -9 6t-1 9
q12 45 22 69.5t18 35.5t13.5 13t8.5 2q10 0 14 -6q4 -7 0.5 -34t-13 -67.5t-23.5 -92.5t-30.5 -108.5t-35.5 -114t-38 -111t-37 -99t-33 -77.5q-11 -21 -25.5 -54.5t-34.5 -78.5q-31 -69 -71.5 -159t-88 -190t-101 -205.5t-110.5 -206t-116.5 -191t-118 -160.5t-115.5 -114
t-110 -53h-1z" />
    <glyph glyph-name="K" unicode="K" horiz-adv-x="680" 
d="M374 888l-9 85l52 121l51 6zM-464 -1012q-11 0 -14 7q-7 10 2 22q7 8 35 66.5t72 155.5t102 227.5t124.5 283t140 321t149 343t150.5 349t145 337.5q2 5 7.5 7.5t11.5 -1.5q5 -2 8 -7.5t1 -11.5q-24 -55 -63.5 -146.5t-89.5 -208t-108.5 -251.5t-120 -277.5t-123.5 -286
t-120.5 -276t-110 -248t-91.5 -202.5t-66 -139.5t-33 -58.5q-2 -2 -4 -3.5t-4 -1.5zM202 489q-5 0 -9 3t-4 8q-2 6 1 11.5t10 7.5q117 29 212 79t169.5 109t128.5 120t89.5 110.5t53 81.5t18.5 33q3 5 8.5 8t10.5 -1q13 -6 9 -19q-1 -2 -19.5 -35t-55 -84.5t-92 -114
t-132 -123t-175 -112.5t-219.5 -82h-4zM374 -57q-13 0 -16 10l-169 547q-2 4 1 9.5t8 9.5q6 2 11.5 -1t7.5 -10l171 -546q5 -15 -11 -19h-3zM897 1064q-38 -38 -61.5 -54t-31.5 -20q-11 -5 -9.5 -9t6.5 -7q6 -4 17 -7z" />
    <glyph glyph-name="L" unicode="L" horiz-adv-x="452" 
d="M157 8q-20 0 -35 0.5t-24 2.5q-69 11 -89 53q-9 17 -8 35t6 32.5t10.5 24.5t6.5 10l166 316q9 12 19 6q5 -2 6.5 -7.5t-0.5 -10.5l-168 -317q0 -1 -4.5 -8.5t-8.5 -19t-5.5 -25t5.5 -25.5q14 -29 67 -38q12 -2 39.5 -2.5t60.5 0.5t66 3t55 5q5 2 9.5 -2t6.5 -9
q0 -13 -12 -16q-17 -1 -38 -2.5t-43.5 -2.5t-45.5 -2t-42 -1z" />
    <glyph glyph-name="M" unicode="M" horiz-adv-x="1026" 
d="M-467 -1108q-6 0 -10 1q-4 2 -3.5 5t2.5 6.5t5.5 7t5.5 8.5l877 1999l21 87l20 47q1 4 6 2.5t11 -5t11.5 -7t9.5 -4.5q8 -2 13 -8t5 -14l-28 -920l436 946q2 3 4 8.5l4 11t5 9.5t7 4q4 -2 10 -4l12 -4t10 -5.5t4 -7.5l-130 -1122q-2 -8 -8.5 -15t-15.5 -5q-5 1 -5 13.5
t1.5 28.5t3.5 30t2 18l122 1030l-452 -993q-2 -3 -2.5 -3.5t-1 0.5t-1.5 2.5t-5 1.5q-8 3 -16 7t-8 12l21 939l-923 -2095q-3 -7 -8.5 -9.5t-11.5 -2.5z" />
    <glyph glyph-name="N" unicode="N" horiz-adv-x="715" 
d="M-430 -984q-2 0 -3.5 1t-2.5 1q-4 3 -10.5 5t-4.5 6l16 20l666 1447q3 8 13 8q4 -2 8 -5t4 -7l118 -486q0 -5 -3.5 -9t-6.5 -4q-16 -2 -16 12l-115 437l-651 -1418q-5 -8 -12 -8zM365 0q-1 0 -2.5 1t-2.5 1q-10 5 -8 18q3 7 22 49.5t49 108.5t68 149t79 171t82 174.5
t76 160t62.5 127.5t41.5 76q17 26 37.5 66t41.5 87l-3 -3q-5 -4 -10.5 -3t-8.5 6q-7 8 1 19q17 13 33.5 32t30.5 44q18 40 34.5 80t31.5 76.5t27.5 68t20.5 54.5q2 11 5 20t5 16q3 8 4 14q1 4 4.5 7.5t8.5 1.5q10 0 13 -11q0 -5 -2.5 -17t-10.5 -32q-8 -25 -19 -60.5
t-26 -75t-33 -79.5t-40 -74q-34 -79 -67 -147t-56 -106q-14 -22 -41.5 -76.5t-63.5 -129t-77.5 -163t-82.5 -177t-79 -172t-67.5 -148t-47 -104t-18.5 -40.5q-2 -4 -6 -7t-6 -3z" />
    <glyph glyph-name="O" unicode="O" horiz-adv-x="598" 
d="M251 3q-52 0 -95 16.5t-73.5 47t-47.5 73t-17 93.5q0 52 20 98t54 80t80 53.5t98 19.5q53 0 102 -21.5t86.5 -57t60 -82t22.5 -97.5q0 -52 -25.5 -93t-67 -70t-93.5 -44.5t-104 -15.5zM270 457q-47 0 -88 -17.5t-71.5 -47.5t-48.5 -71t-18 -88q0 -46 15 -83.5t42 -64
t65 -41t85 -14.5t94.5 13.5t85 39t61 62t23.5 81.5t-20.5 86.5t-54 74t-78 51.5t-92.5 19z" />
    <glyph glyph-name="P" unicode="P" horiz-adv-x="578" 
d="M16 5h-2q-5 0 -9 4.5t-3 9.5q2 10 8 27.5t15.5 39.5t21.5 46.5t26 48.5q8 15 18.5 42.5t20.5 60t19.5 66.5t16.5 61.5t11.5 45.5t4.5 19q4 13 17 9q12 -4 9 -17q-1 -2 -5.5 -20.5t-12 -46.5t-17 -62t-19.5 -66.5t-20.5 -60.5t-19.5 -44q-29 -52 -46.5 -94.5t-20.5 -57.5
q0 -11 -13 -11zM69 136q-4 0 -7.5 3.5t-5.5 8.5q-2 13 10 16q5 2 13.5 3.5t18.5 3.5q22 5 55.5 13.5t71.5 20t76.5 26t71.5 31t57 36.5t32 42q6 15 2 30.5t-15 30.5q-26 37 -73 53t-102.5 18t-113.5 -5t-105.5 -17t-78.5 -18.5t-32 -8.5q-10 -5 -17 8q-2 5 1 10t8 7
q4 1 37.5 11t83.5 20t110.5 16.5t118.5 3t107.5 -22t78.5 -58.5q15 -22 19 -44.5t-4 -42.5q-10 -26 -35 -47.5t-59 -40.5t-73.5 -34t-79 -27t-75.5 -21t-62 -15q-10 -3 -17.5 -4.5l-12.5 -2.5q-2 0 -2 -1.5t-2 -1.5zM-64 403l-1 2q-3 2 -2.5 5t0.5 6v26q0 6 -1 3t4 -3h50
q4 0 7.5 0.5t5.5 -4.5q0 -8 -8 -11l-49 -24q-2 -2 -3 -1t-3 1z" />
    <glyph glyph-name="Q" unicode="Q" horiz-adv-x="590" 
d="M236 6q-52 0 -95.5 17t-74.5 47.5t-48 73.5t-17 95q0 53 20 99t54.5 80.5t81 54.5t98.5 20q54 0 103.5 -21.5t87.5 -58t60.5 -83.5t22.5 -98q0 -52 -26 -94t-67.5 -71t-94 -45t-105.5 -16zM255 466q-47 0 -88.5 -18t-72.5 -48.5t-49.5 -72t-18.5 -88.5q0 -46 15.5 -84
t43 -65.5t66 -42.5t85.5 -15q48 0 96 14t86 40t61.5 63t23.5 83t-20.5 88.5t-54.5 74.5t-79 51.5t-94 19.5zM440 -53q-7 0 -9 5q-94 81 -179 211.5t-163 312.5q-10 17 -18 33.5t-10 31.5q-2 4 -1.5 11t8.5 10q11 3 15 -3t13 -31q4 -9 9 -19t9 -22q11 -18 22.5 -35t21.5 -31
q11 -16 23 -30q5 -4 4.5 -9t-4.5 -9t-8 -4t-6 2q65 -134 135.5 -234.5t145.5 -166.5q5 -3 5 -8t-3 -10q-3 -2 -5 -3.5t-5 -1.5z" />
    <glyph glyph-name="R" unicode="R" horiz-adv-x="618" 
d="M28 -7l-28 14l21 33l182 382q3 4 9.5 5.5t11.5 -0.5q5 -3 1.5 -11t-5.5 -13l-5 -24l-183 -356q-1 -2 2 -8.5t5 -13t0.5 -10t-11.5 1.5zM82 227q-8 0 -8 5q0 2 1 8t4 6q7 2 11.5 -0.5t9.5 -2.5q114 15 188 33t119 35.5t66.5 33t30.5 26.5q7 10 9 17q1 4 0 6q-1 20 -19 33
t-43 21t-51 12t-42 6q-26 3 -62.5 3t-78.5 -1.5t-85.5 -4t-83 -5.5t-71 -5.5t-48.5 -4.5q-10 -1 -17 -5q-4 -2 -6 -4q-5 0 -10 10.5t-5 14.5q0 2 5 5.5t8 3.5t29.5 3t67 6t90.5 6.5t100 5.5t95.5 1.5t76.5 -3.5q3 0 30.5 -4.5t60 -15.5t59.5 -29.5t28 -46.5q0 -5 -1 -9
t-3 -9.5t-7 -10.5q-12 -16 -39.5 -34.5t-79 -37t-131 -36t-196.5 -32.5h-2zM391 -15q-4 0 -6 3q-3 2 -4.5 7.5t0.5 7.5q44 78 56 132.5t-10 81.5q-51 64 -278 -1q-14 -5 -21 -5t-10 6q-3 5 -1 10t5 7q4 1 9 1q2 0 4.5 2t7.5 3q15 4 39 10.5t52.5 12.5t59.5 9t59.5 1
t53 -11.5t39.5 -29.5q57 -69 -44 -241q-4 -6 -11 -6z" />
    <glyph glyph-name="S" unicode="S" horiz-adv-x="684" 
d="M291 -3q-6 0 -11.5 1t-12.5 1q-150 4 -205 43q-12 9 -18.5 18.5t-9.5 19t-3 18v14.5q0 5 3.5 9.5t10.5 4.5q5 -2 9.5 -6.5t4.5 -9.5q0 -11 1.5 -23t17.5 -24q25 -16 72 -25t119 -11q83 -3 135.5 10.5t84.5 30.5q36 20 56 47l2 4q11 20 13.5 37t-5.5 30q-6 10 -20.5 21
t-42 19.5t-70 14t-105.5 4.5q-244 -4 -300 77q-8 13 -10.5 25t-2.5 21.5t1.5 15t1.5 6.5q27 48 75.5 73.5t106 34.5t117 6.5t108 -9.5t80 -15t32.5 -8q6 -2 8 -7.5t0 -10.5q-1 -6 -10.5 -8t-13.5 0q-1 0 -30 7t-74.5 13.5t-101.5 9.5t-110 -4.5t-101 -29t-74 -63.5
q0 -6 2 -13q2 -6 4.5 -13t8.5 -14q6 -10 22.5 -21.5t48.5 -22t83 -17t126 -5.5q109 2 176 -16.5t88 -56.5q4 -7 7 -16.5t3 -21.5t-3.5 -26.5t-13.5 -32.5q-1 0 -13 -16.5t-43 -36.5t-85 -36.5t-139 -16.5z" />
    <glyph glyph-name="T" unicode="T" horiz-adv-x="931" 
d="M352 446q-87 0 -149 3.5t-102.5 8t-60 8.5t-21.5 5q-11 4 -8 15q2 4 5.5 7t7.5 1q1 0 44.5 -7.5t138.5 -12.5t246 -2.5t367 22.5q4 0 8 -3t4 -7q2 -5 -1.5 -9t-8.5 -4q-149 -14 -264.5 -19.5t-205.5 -5.5zM23 469q-3 0 -5 5t-2 10q0 13 7 15q30 2 47.5 4t27.5 4
q11 2 15 2q2 2 4.5 -1.5t2.5 -8.5q1 -5 0 -16.5t-4 -11.5q0 -1 -3 0t-13 2t-28 0.5t-49 -4.5zM234 0h-2q-10 5 -5 18l196 448q5 11 16 7q11 -3 6 -16l-197 -448q-6 -10 -14 -9z" />
    <glyph glyph-name="U" unicode="U" horiz-adv-x="441" 
d="M119 19q-7 0 -11 3q-23 1 -40.5 11t-31.5 28q-15 21 -20.5 50.5t-4.5 63t4.5 69t6.5 68.5q-4 -2 -13 -2q-9 4 -6 16l62 158q4 9 16 9q4 -2 7.5 -6.5t1.5 -10.5l-8 -23t-18 -58.5t-19.5 -80.5t-13 -89.5t1 -84t23.5 -64.5q23 -28 54 -32q51 -3 90 44q22 26 42 62
t36.5 75.5t29.5 80t21 75t11.5 60t0.5 35.5q-2 12 9 14q6 2 10.5 0t5.5 -6q3 -14 0 -42t-12 -65t-23 -79t-31 -83.5t-37.5 -78.5t-42.5 -64q-45 -53 -101 -53z" />
    <glyph glyph-name="V" unicode="V" horiz-adv-x="541" 
d="M107 5q-12 0 -10 11q1 10 -8.5 52t-24 98.5t-31.5 119t-31 112.5q-2 12 12 20q13 7 15 -4q4 -13 12 -41t18 -63.5t21 -75.5t20.5 -77t16.5 -68t9 -49q13 12 36.5 35t52 53.5t60.5 66.5t63 73.5t59 74t48 68.5q-3 -5 -6.5 -8.5l-6.5 -6.5q-5 -4 -10.5 -5t-8.5 2
q-5 2 -3.5 7.5t7.5 10.5q17 15 29.5 28.5t20.5 23.5q10 11 17 22q8 10 20 10q4 0 6 -3.5t0 -7.5q-8 -28 -38 -74t-70.5 -98.5t-87.5 -106t-88.5 -97.5t-73.5 -72.5t-43 -30.5h-2z" />
    <glyph glyph-name="W" unicode="W" horiz-adv-x="988" 
d="M95 5q-5 0 -8.5 3t-2.5 9q1 7 -1.5 32.5t-8 63t-13.5 84.5t-16.5 96.5t-18 98t-17.5 90.5q-1 6 3 11.5t10 8.5q16 7 18 -4q2 -10 8 -42t14 -76t17 -95t16.5 -98.5t13.5 -87t7 -59.5q13 10 35.5 30.5t50 47.5t59 59.5t62 66.5t58 68t48.5 65l-10 -10q-16 -10 -22 -4
q-3 3 -2 8t6 10q18 17 31.5 31.5t23.5 25.5q11 13 20 24q8 10 18 10q5 0 7 -3.5t0 -8.5q-9 -31 -39 -76.5t-71 -95.5t-87.5 -99.5t-88 -89.5t-73.5 -66t-43 -28h-4zM491 5q-13 0 -11 12q1 7 -3.5 30t-12.5 56t-18 74.5t-21.5 84.5t-23.5 85t-22 78q-2 13 13 21q14 7 16 -4
q4 -14 13 -44t19.5 -68t22 -80.5t21.5 -82.5t17.5 -73t9.5 -52q14 12 39 37t55.5 57.5t65 71t67.5 78.5t63 79t51 73q-5 -8 -14 -15q-5 -5 -11 -6t-9 2q-5 3 -3.5 8.5t7.5 10.5q34 32 54 56q11 12 18 24q8 10 21 10q5 0 7 -3.5t0 -8.5q-7 -22 -27 -55.5t-48.5 -73.5
t-63.5 -83t-71 -85t-71.5 -80t-65.5 -67.5t-51.5 -47.5t-30.5 -19h-2z" />
    <glyph glyph-name="X" unicode="X" horiz-adv-x="411" 
d="M370 4q-4 0 -5 2q-34 16 -73 57.5t-78 94.5t-75 111t-64.5 107t-47 83t-20.5 38q-5 12 6 18q10 4 15 -5q0 -2 17.5 -34t45.5 -80.5t64 -106t74.5 -110.5t76.5 -94.5t69 -56.5q4 -3 5.5 -7.5t-0.5 -8.5q-3 -8 -10 -8zM18 4h-3t-4 2q-5 4 -5.5 9t1.5 9l259 355q-3 0 -4 1
t-3 2q-7 10 0 19l68 62q8 8 18 0q4 -2 4 -7t-2 -9l-319 -436q-4 -7 -10 -7z" />
    <glyph glyph-name="Y" unicode="Y" horiz-adv-x="654" 
d="M318 -8q-9 0 -15 6l-181 310q-1 -5 -5 -8.5t-9 -3.5q-5 -1 -10.5 3t-7.5 9q0 10 -8.5 29.5t-20.5 43.5t-26 49.5t-26 47.5q-4 7 -1 12t9 10q5 3 10.5 1t9.5 -7l291 -477q5 -7 3 -13.5t-7 -8.5q-4 -3 -6 -3zM-168 -976q-2 0 -3.5 2t-5.5 2q-5 2 -6.5 8t2.5 11l723 1452
q9 12 20 5q13 -8 8 -20l-724 -1449q0 -5 -4.5 -8t-9.5 -3z" />
    <glyph glyph-name="Z" unicode="Z" horiz-adv-x="513" 
d="M459 445l-446 34q-12 0 -12 12q3 12 14 12l446 -34q10 -3 10 -14q0 -10 -12 -10zM58 -15q-4 0 -7 3q-9 7 -4 16q7 10 27 35t47 59t59.5 74.5t65.5 81t64 79t55.5 69t40.5 50t19 22.5q8 8 17 2q4 -4 5 -8.5t-3 -8.5q-1 -1 -16 -19.5t-39 -48.5t-55.5 -68.5t-65 -79.5
t-66 -82t-60 -76t-47.5 -60t-27 -35q-5 -5 -10 -5zM73 9q-10 0 -14 10q-2 12 11 16q2 0 29.5 5t78 9.5t122 5.5t161.5 -5q5 0 8.5 -4.5t3.5 -9.5q-2 -5 -6 -8.5t-8 -3.5q-88 7 -159 5.5t-120.5 -5.5t-76.5 -9t-28 -6h-2z" />
    <glyph glyph-name="bracketleft" unicode="[" horiz-adv-x="488" 
d="M329 617l-310 -1q-2 0 -5 5t-3 10q0 8 7 8h312q6 0 6 -8q0 -5 -2 -9.5t-5 -4.5zM330 -116h-301q-2 0 -4 3t-2 7q0 5 2.5 10t4.5 5l300 -1q3 0 4.5 -4.5t1.5 -9.5q0 -10 -6 -10zM23 -145q-5 0 -5 8v776q0 10 5 10q3 0 10.5 -2.5t7.5 -7.5l2 -779q0 -3 -8.5 -4t-11.5 -1z
" />
    <glyph glyph-name="backslash" unicode="\" horiz-adv-x="435" 
d="M344 11l-3 -3q-9 -6 -13 4q-13 25 -32 62t-41.5 81t-47 93t-49 97.5t-47.5 94t-42 82.5q2 -10 2.5 -18.5t-1.5 -14.5q-2 -10 -11 -8t-7 11q2 10 -2 29t-10.5 40t-14 41t-12.5 32q-4 10 5 12q8 5 13 -4q0 -1 11 -22.5t28.5 -56.5t40.5 -81.5t49 -98t53 -104.5t51.5 -101.5
t45.5 -89l35 -67.5q2 -6 -1 -10z" />
    <glyph glyph-name="bracketright" unicode="]" horiz-adv-x="308" 
d="M5 -100h248q5 0 5 -10q0 -3 -1.5 -6t-3.5 -3h-248q-2 0 -3.5 3t-1.5 6q0 10 5 10zM5 627h239q5 0 5 -8q0 -11 -5 -11h-239q-5 0 -5 11q0 8 5 8zM249 657q4 0 4 -9v-767q0 -11 -4 -11q-2 0 -10.5 3t-8.5 8l1 766q0 5 8 7.5t10 2.5z" />
    <glyph glyph-name="asciicircum" unicode="^" horiz-adv-x="315" 
d="M18 332h-4q-5 2 -8 8t-1 13q12 51 29 107.5t34 106.5q9 24 16.5 44.5t14.5 34.5q10 21 17 29.5t15 8.5q5 0 10 -4t7 -14t17.5 -40.5t37 -70.5t45 -82.5t43.5 -76.5q9 -12 -2 -23q-5 -5 -10 -3.5t-9 6.5l-6 10.5t-15.5 28t-22 39.5t-25.5 46q-35 62 -51 94.5t-22 46.5
q-6 -11 -16 -34t-24 -64q-16 -48 -31.5 -100.5t-26.5 -99.5q-3 -11 -12 -11z" />
    <glyph glyph-name="underscore" unicode="_" horiz-adv-x="639" 
d="M592 -12h-1q-31 1 -81.5 2.5t-109.5 3t-120.5 2.5t-114.5 3q-7 -3 -25 -5t-60 1q-24 3 -43 5t-21 2q-5 1 -8 3.5t-2 5.5q0 5 4 7.5t9 2.5q1 0 41.5 -1t101.5 -2q53 -1 115 -2.5t121.5 -3t111 -3t82.5 -2.5q6 0 9.5 -3t2.5 -6q0 -10 -12 -10z" />
    <glyph glyph-name="a" unicode="a" horiz-adv-x="557" 
d="M232 10h-12t-11 1q-48 3 -81 22t-55.5 44.5t-35.5 55t-19.5 54t-8.5 41.5l-2 17q17 226 225 235q48 3 90 -14t77 -52q35 -33 53.5 -77t18.5 -92q0 -49 -19 -91.5t-51 -74.5t-76 -50.5t-93 -18.5zM218 41h14q43 0 81 16t66 44t44.5 65t16.5 79t-15.5 80.5t-46.5 67.5
q-29 29 -66 44t-78 12q-94 -4 -141.5 -54.5t-55.5 -149.5q0 -2 1.5 -13.5t3.5 -28.5q2 20 7 44.5t13 50.5q0 4 2 10.5t5 8.5q4 1 4 -1.5t3 -4.5q4 -3 4.5 -7t-0.5 -8t-2.5 -6.5t-2.5 -1.5q-12 -48 -10 -82t10 -57q9 -26 25 -45q6 -9 9 -13t8 -10q17 -16 34 -24
q30 -11 60 -14h5h1q1 -1 1 -2zM455 6q-13 0 -13 14v458q0 14 13 14t13 -14v-458q0 -14 -13 -14z" />
    <glyph glyph-name="b" unicode="b" horiz-adv-x="573" 
d="M475 1302q-8 30 -7 63q0 28 8.5 62t31.5 66q7 4 15 5q6 1 13.5 -1t13.5 -10q4 -6 -3 -37.5t-20 -78t-30.5 -101.5t-35 -105.5t-33.5 -92t-26 -60.5q-11 -20 -34 -71t-54 -119.5t-69 -147.5t-77.5 -154t-79.5 -139t-75 -104q-20 -21 7.5 27t90.5 172.5t157 329t207 496.5z
M249 1q-50 0 -93.5 19t-76 52.5t-51.5 78.5t-19 96t19 95.5t51.5 77.5t76 52.5t93.5 19.5t93.5 -19.5t76 -52.5t51.5 -77.5t19 -95.5t-19 -96t-51.5 -78.5t-76 -52.5t-93.5 -19zM249 465q-44 0 -82.5 -17t-67.5 -47t-45.5 -69.5t-16.5 -84.5q0 -46 16.5 -86t45.5 -70
t67.5 -47t82.5 -17t82.5 17t67.5 47t46 70t17 86q0 45 -17 84.5t-46 69.5t-67.5 47t-82.5 17z" />
    <glyph glyph-name="c" unicode="c" horiz-adv-x="540" 
d="M265 8q-54 0 -101.5 19.5t-83 53t-56 78t-20.5 95.5t20.5 96t56 78.5t83 53t101.5 19.5q39 0 76.5 -10t69.5 -30q6 -6 6 -12q0 -5 -4 -11l-33 -26q-8 -6 -13 -1q-8 1 -8 11l2 33v2q-23 8 -46.5 13.5t-49.5 5.5q-49 0 -91.5 -17.5t-74 -47.5t-50 -70.5t-18.5 -86.5
q0 -45 18.5 -85t50 -70t74 -47t91.5 -17q48 0 91 16.5t76 48.5q3 3 9 3t9 -5q8 -10 0 -19q-37 -35 -84 -53t-101 -18z" />
    <glyph glyph-name="d" unicode="d" horiz-adv-x="619" 
d="M226 14h-12t-12 2q-48 3 -82 22t-57 45t-36 56t-20 55t-9 42l-2 17q18 231 230 240q47 2 91 -14.5t79 -50.5q34 -35 53.5 -80.5t19.5 -94.5t-19 -92.5t-52 -76t-77 -51.5t-95 -19zM212 48q5 -2 8 -2h6q44 0 82.5 16.5t67 44.5t45 66t16.5 80q0 43 -15.5 82.5t-46.5 68.5
q-29 30 -67 45t-80 12q-95 -5 -143.5 -56t-56.5 -152q0 -2 0.5 -13t5.5 -28q2 20 6.5 44t12.5 52q0 6 8 10t14 -2q8 -5 20.5 -15.5t12.5 -25.5q0 -8 -3 -15.5t-3 -0.5q-3 18 -14 25t-11 13q0 2 -2 -4t-4 -4q-13 -48 -11 -81.5t9 -55.5q8 -26 23 -42q6 -5 11 -10l11 -11
q8 -8 15 -15.5t14 -10.5q30 -12 61 -15h6h2zM381 54h-4q-5 2 -7 7.5t1 11.5q10 21 34 75t58.5 130.5t77.5 170t89 194.5t93.5 203.5t92.5 196.5q-21 -28 -36 -47t-23 -27q-2 -2 -9 -2.5t-14.5 1t-14.5 3.5t-9 4q-7 10 2 19q1 1 6.5 3.5t12 6t12.5 7t8 5.5q25 29 67.5 86
t85.5 128q45 93 76.5 153.5t42.5 71.5q2 3 7 7t13 1l8 -2l2 -8q1 -7 -8.5 -29.5t-27 -54.5t-41 -72t-49.5 -81q-34 -71 -75.5 -158.5t-86.5 -185t-93 -202t-95.5 -209t-93.5 -206.5t-87 -194q-7 -10 -15 -7z" />
    <glyph glyph-name="e" unicode="e" horiz-adv-x="548" 
d="M251 4q-52 0 -97.5 20t-79 54t-53 80t-19.5 98t19.5 97.5t53 79.5t79 54t97.5 20q55 0 103 -21t84 -61q2 -2 3 -4.5t-1 -5.5q0 -5 -4 -9l-315 -269q-10 -10 -20 0q-2 5 -2 11t4 8l304 261q-31 29 -71 46t-85 17q-46 0 -86.5 -17.5t-70.5 -48t-47.5 -71.5t-17.5 -87
t17.5 -87t47.5 -71.5t70.5 -48t86.5 -17.5q43 0 81.5 15t70.5 43q4 4 12 13t16 20.5t14.5 23.5t8.5 23q2 6 6.5 9t9.5 1t9 -6t2 -10q-3 -16 -12.5 -32.5t-20 -29.5t-18.5 -21.5t-9 -9.5q-35 -32 -78.5 -49.5t-91.5 -17.5zM448 123h-21q-9 0 -12 10q-3 7 4 14l31 25q6 6 14 2
q7 -7 4 -14l-8 -27q-3 -10 -12 -10z" />
    <glyph glyph-name="f" unicode="f" horiz-adv-x="470" 
d="M218 2q-6 0 -12.5 4t-6.5 9v798q-20 -16 -49.5 -31.5t-61.5 -29.5q-5 -3 -9.5 -1t-7.5 6q-2 6 -1.5 11t5.5 7q37 17 70.5 34t53.5 36v46q0 34 2 91.5t6 124t10 136t13 128t15 99.5t17 51q1 1 8.5 3t16.5 4.5t18 3.5t14 0q18 -6 40.5 -36t42.5 -76.5t34 -105t15 -122.5
q1 -41 -14 -85.5t-43.5 -90.5t-70 -92t-94.5 -89l-3 -814q0 -5 -1 -12t-7 -7zM292 1513q-10 -9 -18 -40t-14 -77.5t-11 -105.5t-9 -125t-6.5 -135t-4.5 -136v-27q49 44 87 90t63 92t37 90.5t8 85.5q-4 54 -18 105.5t-32.5 92t-40 65.5t-41.5 25zM6 490q10 9 21 15
q10 5 22 7.5t26 -2.5q13 -5 39 -5t53.5 1.5t51.5 3.5t35 2q12 1 38 5t54.5 6.5t52.5 1t31 -10.5q6 -9 2.5 -12t-12.5 -3t-21.5 1.5t-24.5 1.5q-11 0 -39 -2t-58.5 -5t-56 -5t-29.5 -2h-179q-3 -1 -5 -1q-4 0 -1 3z" />
    <glyph glyph-name="g" unicode="g" horiz-adv-x="598" 
d="M256 499h26q49 -4 84 -23.5t58 -46.5t36.5 -57t20 -55.5t8.5 -43l2 -17.5q-15 -235 -233 -247q-50 -2 -95 16t-80 53q-36 35 -55 80.5t-19 95.5q0 51 19.5 96t53 78t78.5 52t96 19zM272 467h-16q-44 0 -83.5 -16.5t-69 -45.5t-47 -67.5t-17.5 -83.5q0 -42 17 -82t48 -70
q32 -32 71 -47t81 -13q97 5 147 57.5t58 156.5q0 2 -1.5 13.5t-4.5 29.5q-2 -21 -6.5 -45.5t-13.5 -53.5q-3 -10 -8 -10q-8 -3 -14 0q-8 5 -21 17t-13 27q0 6 3 14t3 2q1 -9 5.5 -15t9 -10.5t8 -7.5t3.5 -7q1 2 2 5q2 5 4 5q12 48 10 82.5t-9 57.5q-9 26 -23 43q-6 5 -11 10
t-11 10q-8 9 -15 17t-15 11q-16 6 -32 10t-31 6h-6h-2zM-178 -851h-12t-12 2q-53 9 -83 66q-20 36 -18.5 87t22.5 114q23 66 61 131.5t83.5 122.5t96.5 100t99 64q2 1 7 3t10 3.5t9 1.5t6 -2q1 -3 2 -9t0.5 -12t-2 -11t-4.5 -6q-8 -3 -23 -3t-23 -5q-43 -25 -87.5 -67.5
t-84 -94t-72 -109.5t-52.5 -115t-21.5 -103t15.5 -76q23 -43 65 -52q30 -5 63 6.5t61 27.5t46.5 30.5t19.5 15.5q38 33 78 92.5t80 136t79 165t74.5 179.5t66.5 180t55.5 166.5t41.5 138t24 94.5q5 17 2.5 21.5t-4.5 4.5q-5 4 -4 10t5 11t9 8.5t8 2.5t8.5 -4.5t10.5 -8
t8.5 -9.5t2.5 -8q0 -3 -7.5 -10.5t-10.5 -21.5q-7 -34 -24 -95t-41.5 -139t-56 -168t-67.5 -183t-75.5 -183t-80.5 -168t-82.5 -139t-81.5 -95q-2 -2 -19 -15.5t-44 -30t-60 -29.5t-67 -13z" />
    <glyph glyph-name="h" unicode="h" horiz-adv-x="590" 
d="M101 131l-24 11l391 852q0 1 11 20.5t29 52t41 76t48 93t50.5 102.5t48.5 105q11 28 16.5 45t10.5 26q-9 -8 -17.5 -19.5t-15.5 -22.5l-253 -372l-20 15l250 372q21 30 34.5 45t21.5 20.5t13 5t8 -2.5q5 -3 8 -7.5t0.5 -17t-10 -35t-23.5 -61.5q-34 -79 -73.5 -159
t-74 -145t-57.5 -106t-23 -42zM426 1093l-33 39l83 134l39 -26zM294 -11q-4 0 -6 1q-8 3 -6.5 11t5.5 13q0 3 3.5 4.5t5.5 1.5q4 8 11 22.5t18.5 38t28.5 58t43 82.5q35 67 52 110.5t22.5 70.5t3 39t-6.5 16q-3 3 -11 5t-16.5 2.5t-14.5 0t-6 -1.5q-55 -16 -104.5 -55.5
t-92 -90t-76.5 -105t-58.5 -100t-37.5 -75t-13 -30.5q-3 -10 -14 -8q-4 4 -11.5 2.5t-3.5 2.5q1 4 15.5 36.5t40 80t61.5 103.5t80.5 108t96.5 93t109 58q1 0 10 1t21 0.5t23.5 -3t18.5 -9.5q43 -49 -68 -260q-40 -74 -62.5 -118.5t-34.5 -67.5t-17 -30t-9 -7z" />
    <glyph glyph-name="i" unicode="i" horiz-adv-x="307" 
d="M-14 2q-2 0 -3.5 1t-4.5 1q-4 3 -6 8t1 11q48 99 82 171.5t56.5 123.5t35 83.5t19 50.5t8 25l1.5 7q3 14 15 14q13 -3 13 -15q-1 -2 -2.5 -9t-8 -26t-19.5 -51.5t-35.5 -84.5t-57 -125.5t-83.5 -174.5q-2 -5 -5 -6.5t-6 -3.5zM288 608h-11t-10 2q-14 4 -24 12t-16 16
q-7 9 -12 19q-9 20 -8.5 36.5t8.5 30.5q7 12 18 19.5t21 12t17.5 6t8.5 2.5q6 0 9.5 -3.5t5.5 -8.5q10 3 20 4t20 -4q18 -7 32 -23.5t16 -36.5q6 -38 -26 -58q-37 -26 -69 -26zM239 668q4 -7 9 -13q5 -5 11 -10.5t16 -8.5q14 -5 30.5 0.5t36.5 18.5q11 8 14 17t1 17
q-2 12 -10.5 23t-21.5 16q-18 6 -33 -9q-4 -4 -8 -9q-3 -5 -7 -10.5t-6 -12.5q-3 -6 -7.5 -8.5t-9.5 0.5q-5 2 -7.5 7t0.5 10q4 13 10.5 22.5t11.5 15.5q-8 -3 -17 -9t-15 -14q-8 -18 2 -43z" />
    <glyph glyph-name="j" unicode="j" horiz-adv-x="565" 
d="M512 616q-6 0 -10 0.5t-10 2.5q-14 4 -24 11.5t-16 15.5q-8 9 -12 19q-14 41 2 68q7 12 17.5 19t20.5 11t17.5 5.5t8.5 1.5q5 2 9.5 -1.5t4.5 -7.5q19 4 39 0q20 -8 33 -24t15 -36q6 -39 -24 -58q-20 -14 -37 -20.5t-34 -6.5zM464 676q4 -7 9 -13l11 -11t16 -8
q13 -3 31 1t38 18q10 8 12 17.5t1 17.5q-2 12 -10.5 23t-19.5 15q-11 3 -19.5 1.5t-15.5 -9.5q-4 -4 -8 -9q-7 -9 -14 -24q-2 -5 -6.5 -7.5t-10.5 0.5q-4 2 -6 6.5t-1 9.5q5 14 11.5 23t12.5 15q-8 -2 -17 -8t-14 -14q-13 -17 0 -44zM-308 -850h-2l-5 1t-11.5 5.5t-13.5 12
t-12 21.5q-9 19 -11 52t11 84.5t44.5 123.5t88.5 170q-5 -7 -9 -8q-5 -2 -10 -1t-7 7q-4 4 -3 9t7 8q7 5 19 17.5t27 30t33 40t36 46.5l50 74t54 75q18 25 28.5 39t15.5 20t8 7t6 0q9 -2 9 -11q1 -5 -11.5 -26.5t-33.5 -51.5t-48 -66t-54 -71q-20 -31 -38.5 -60t-37.5 -58
q-65 -108 -99.5 -184.5t-48.5 -128t-12.5 -81.5t8.5 -45q6 -14 13 -19t12 -7q56 11 112 58.5t109.5 117.5t103.5 155.5t94 172.5t81 169.5t64 145.5q14 29 24.5 52t18.5 40q38 78 67 160t46 145q-20 -33 -52 -69.5t-80 -66.5q6 -5 6 -13q0 -7 -6 -11l-27 -13q-6 -2 -12 0
q-7 6 -7 13l-1 16q0 5 1.5 8.5t6.5 5.5q5 4 10.5 6.5t11.5 7.5q49 32 81.5 70t51 71t26 55t7.5 23q3 9 13 9q7 0 12 -8q4 -7 1 -31t-12 -59t-22.5 -77.5t-30 -87t-34 -87.5t-34.5 -78q-8 -17 -17.5 -40.5t-23.5 -51.5q-29 -65 -66.5 -149t-83 -173t-97 -176.5t-107.5 -158.5
t-115 -118.5t-119 -57.5h-4z" />
    <glyph glyph-name="k" unicode="k" horiz-adv-x="527" 
d="M306 606l-6 63l52 84l25 -13zM16 -6q-5 0 -7 0.5t-5 3.5q-5 10 4 16q5 5 24.5 43.5t48.5 99t65 136t73 154.5t73 156t65 139q2 6 6.5 7.5t9.5 0.5q9 -6 6 -15q-9 -20 -28.5 -62t-45 -96.5t-55 -117.5t-59.5 -126t-58.5 -122t-51.5 -105.5t-39.5 -76t-21.5 -33.5
q-1 -2 -4 -2zM164 297q-4 0 -10 6q-6 8 4 15q47 31 95.5 67t88.5 66.5t65.5 50.5t26.5 21q7 9 15 0q9 -9 0 -16q-1 -1 -26.5 -21.5t-65.5 -51.5t-89 -67t-97 -68q-2 -2 -7 -2zM270 -3q-10 0 -12 6l-104 302q-3 5 -0.5 9t7.5 5q10 2 14 -7l105 -301q2 -5 0 -9t-7 -5h-3z" />
    <glyph glyph-name="l" unicode="l" horiz-adv-x="374" 
d="M18 7q-1 2 -5 2q-5 3 -7 8t1 10l508 1121q7 12 21 7q5 -2 7 -7.5t-1 -11.5l-511 -1122q-2 -2 -6 -4.5t-7 -2.5zM448 1046q-8 0 -12 8q-2 7 0.5 11.5t7.5 6.5q8 4 17.5 13t19 20.5t17.5 23.5t13 21q3 4 8 5.5t10 -0.5q7 -2 8.5 -8t-1.5 -11q-2 -3 -9.5 -15.5t-18.5 -26.5
t-24.5 -28t-27.5 -20h-8z" />
    <glyph glyph-name="m" unicode="m" horiz-adv-x="742" 
d="M-47 -3q-7 0 -11 5q-2 5 -1.5 10.5t4.5 7.5q7 7 19.5 33.5t28.5 66.5t34.5 89.5t36.5 102t35 104t30 96.5q9 9 18 8q13 -4 10 -18q-6 -20 -20 -62t-32 -95t-38 -110t-39.5 -106t-36.5 -84t-27 -44q-3 -3 -6 -3.5t-5 -0.5zM258 24h-1q-7 2 -10.5 6t-2.5 9q8 48 28 96
t42 92q11 21 18.5 39.5t13.5 35.5q5 12 10 35.5t7 49t0 48t-11 33.5q-8 7 -23.5 11.5t-39.5 -2.5q-34 -8 -63.5 -29.5t-53.5 -49.5t-42.5 -58t-31 -55.5t-19 -42l-6.5 -16.5q-3 -14 -18 -11q-5 1 -7 7t-1 11q0 2 7 20.5t20.5 46t33.5 59.5t46 61.5t58.5 52.5t70.5 31
q32 9 54.5 3t35.5 -21q9 -10 16 -26.5t8 -40.5t-4.5 -55.5t-20.5 -71.5q-6 -17 -15.5 -37t-18.5 -40q-20 -42 -40 -88t-26 -91q-3 -12 -14 -12zM498 -20h-1q-5 0 -9 4.5t-1 10.5q3 25 11.5 53.5t20 58.5t25 60.5t25.5 58.5q9 22 18.5 41t14.5 35q11 33 15 58.5t2.5 45
t-7 33.5t-14.5 25q-8 7 -29 10.5t-44 -2.5q-34 -8 -61 -29.5t-47 -48.5t-34.5 -56.5t-23 -54.5t-13 -41l-4.5 -16q-6 -14 -18 -11q-5 1 -7.5 7t-1.5 11q1 2 5.5 20t14.5 45t25.5 58.5t38 60.5t52 51t67.5 31q34 9 60 3.5t39 -21.5q10 -10 18.5 -26t12 -38.5t-1 -53.5
t-20.5 -71q-5 -16 -13.5 -36t-19.5 -43q-12 -28 -24.5 -57.5t-24 -59t-20 -57t-11.5 -50.5q-2 -5 -6 -7t-9 -2zM97 395l-13 50l37 78l26 -6z" />
    <glyph glyph-name="n" unicode="n" horiz-adv-x="510" 
d="M133 404l-13 43l22 67l26 -4zM-18 0q-14 0 -14 13q0 11 7 35.5t18.5 54t26.5 58.5t30 49q9 13 21 39.5t23.5 58t22.5 65t20 61t14 45.5t5 19q2 5 7 7.5t11 0.5t8.5 -6t0.5 -9q-1 -3 -6.5 -21.5t-14.5 -47t-20 -62t-23 -65.5t-24 -58.5t-22 -40.5q-15 -21 -29 -49
t-25.5 -55.5t-18 -49.5t-6.5 -29q0 -5 -3.5 -9t-8.5 -4zM252 -11q-2 0 -4 2q-5 0 -8.5 4.5t-1.5 10.5q5 22 24 53.5t39 75.5q15 33 32.5 81.5t29.5 96.5t15.5 89.5t-7.5 61.5q-2 5 -7 8.5t-17 3.5q-33 0 -72 -29.5t-76.5 -70.5t-69 -84t-49.5 -70q-7 -11 -20 -4q-4 3 -5 9
t2 11q2 2 16 23t36 50t51 62.5t60.5 62t64 47.5t62.5 19q21 0 31.5 -8t15.5 -16q12 -21 12 -55t-7.5 -73.5t-20 -79.5t-24 -72.5t-20.5 -53.5t-9 -22q-25 -52 -39 -81t-17 -42q-2 -4 -7.5 -7t-9.5 -3z" />
    <glyph glyph-name="o" unicode="o" horiz-adv-x="573" 
d="M240 3q-52 0 -95 17.5t-73.5 50t-47 77.5t-16.5 101q0 55 19.5 103.5t53.5 84.5t79.5 56.5t97.5 20.5q53 0 96 -23.5t74 -62.5t47.5 -89t16.5 -104q0 -56 -20 -99t-54.5 -72.5t-80 -45t-97.5 -15.5zM258 487q-47 0 -87.5 -19t-71 -51t-48 -75.5t-17.5 -92.5
q0 -50 14.5 -90t41.5 -69t65 -44.5t85 -15.5q46 0 87.5 14t73 40t49.5 64.5t18 86.5t-15 93.5t-42.5 81t-66 56.5t-86.5 21zM157 341q5 7 12 16q13 17 38 37q13 10 29.5 20t34.5 18q19 8 41.5 13t45.5 2q11 -1 22.5 -4.5t22.5 -8.5q10 -5 17.5 -13.5t15.5 -16.5
q15 -16 26 -32q4 -10 8.5 -19t6.5 -17t4.5 -14.5t3.5 -13.5q2 -7 3 -12.5t4 -10.5q1 -5 1.5 -9.5t0.5 -6.5v-5q-1 1 -2 4q-1 2 -3 5.5t-4 8.5q-5 20 -22 48q-4 8 -8.5 14.5t-10.5 14.5q-5 8 -10 15.5t-13 13.5q-7 6 -14 11.5t-16 10.5q-8 4 -16.5 6.5t-19.5 2.5
q-20 2 -39 -1t-36 -8q-18 -7 -34.5 -15t-28.5 -15q-15 -8 -26 -15t-19 -12q-9 -6 -12 -9z" />
    <glyph glyph-name="p" unicode="p" horiz-adv-x="723" 
d="M354 0q-54 0 -99 17.5t-76.5 49t-49 75.5t-17.5 98q0 53 20.5 100t56 82.5t83.5 56.5t102 21q55 0 105.5 -22.5t89.5 -60t62 -86t23 -100.5q0 -53 -26.5 -96t-69 -73t-96.5 -46t-108 -16zM374 471q-49 0 -92 -18t-75 -49.5t-50.5 -73.5t-18.5 -90t15.5 -87t44 -66.5
t68 -43t88.5 -15.5t97.5 14t87.5 40t63 64t24 85t-21 90.5t-56 76.5t-80.5 53t-94.5 20zM-378 -929h-1q-1 0 -2 3q-5 2 -7 6.5t1 10.5l554 1306q2 5 8 7.5t11 -1.5q4 -2 7 -7t1 -10l-538 -1265l1 -53q0 -3 -5 -2.5t-11 1.5t-11.5 2.5t-7.5 1.5z" />
    <glyph glyph-name="q" unicode="q" horiz-adv-x="673" 
d="M215 6q-50 0 -90.5 17t-69 47.5t-44.5 73.5t-16 96q0 52 18.5 98t50.5 80.5t75 54.5t93 20t96.5 -21.5t82 -58t57 -83.5t21.5 -98q0 -52 -24.5 -94t-63.5 -71t-88 -45t-98 -16zM232 466q-44 0 -82.5 -18t-67 -48.5t-45 -72t-16.5 -87.5q0 -47 14 -85.5t39.5 -65.5t61 -42
t79.5 -15q45 0 89 14t79 40t57 63t22 83q0 45 -19 87.5t-50.5 75t-73.5 52t-87 19.5zM5 -864h-5q-4 3 -6.5 8t1.5 11l569 1258q2 5 7.5 7t9.5 -1q6 -2 8 -7t0 -10l-571 -1259q-1 -4 -4.5 -5.5t-8.5 -1.5zM591 406l-30 15l-91 -130l37 -39z" />
    <glyph glyph-name="r" unicode="r" horiz-adv-x="507" 
d="M18 0h-5q-5 3 -7.5 7.5t-0.5 8.5l108 288q0 1 6 15t15.5 35.5t20 48t19.5 52.5q0 1 1 2t1 3h-2l-100 -139q-5 -5 -9.5 -6t-9.5 4q-9 7 -3 17l103 139q20 23 29.5 24t13.5 -2q10 -5 8 -19.5t-8 -30.5q-9 -27 -19.5 -54t-20 -49t-16 -36t-7.5 -15l-106 -286q-2 -2 -4 -4.5
t-7 -2.5zM113 252q-6 0 -9 2q-10 10 -4 20l6.5 15t21.5 36t38.5 44t58.5 40t83 24.5t110 -3.5q5 -2 9 -6.5t2 -9.5q0 -6 -5 -9t-10 -3q-58 10 -102 3t-76 -22.5t-53.5 -37t-34 -40.5t-18 -33t-6.5 -14q-6 -6 -11 -6zM416 414l6 -20l-88 29zM422 383h-1q-1 0 -3 2l-89 27
q-9 3 -6 13q0 4 3.5 6.5t7.5 2.5l84 -9q5 0 9 -8l6 -15q0 -2 1 -4t1 -4q0 -4 -3 -7.5t-8 -3.5h-2z" />
    <glyph glyph-name="s" unicode="s" horiz-adv-x="623" 
d="M267 0h-20q-74 2 -117.5 12t-66.5 25t-30 34t-6 39q0 5 4 8.5t10 3.5q14 0 14 -14q-1 -9 2 -22t21 -25t57.5 -21.5t113.5 -11.5q76 -2 124.5 11t77 29.5t40 31t12.5 14.5v2q0 2 2 2q21 39 6 66q-5 10 -18.5 20t-39 17.5t-64.5 12.5t-96 4q-223 -3 -278 74
q-8 13 -10.5 24.5t-2.5 20.5t1.5 14.5t1.5 6.5q25 47 67 72.5t90.5 36.5t98.5 10.5t90.5 -5t66 -11t26.5 -6.5q6 -2 8 -7t0 -11q-2 -5 -12 -7.5t-16 -0.5q-1 0 -24 6t-59.5 10.5t-82.5 5t-91.5 -9t-87 -31.5t-68.5 -64q1 -6 4 -12q2 -5 5.5 -11.5t8.5 -14.5q7 -9 22.5 -20
t45.5 -20.5t77 -16t115 -5.5q203 3 244 -68q9 -14 11.5 -37.5t-17.5 -56.5q0 -1 -11 -17t-39.5 -35.5t-79.5 -35.5t-130 -16z" />
    <glyph glyph-name="t" unicode="t" horiz-adv-x="440" 
d="M223 481h-122t-65.5 1t-26.5 2t-6 4q-4 5 -2 13t9 11q9 6 17 -2q2 -1 13 -2t37.5 -2.5t72.5 -2.5t120.5 -0.5t180.5 3.5t251 9q12 0 12 -13t-13 -13q-85 -4 -155.5 -5.5t-129 -2t-106.5 -0.5h-87zM18 491q-7 0 -10 14q0 13 10 17q43 4 69 6t40 3.5t18.5 2t5.5 0.5
q4 2 6 -2.5t4 -11.5q0 -8 -2 -20t-6 -14q-6 5 -23 8q-14 2 -40.5 2t-71.5 -5zM511 1135q0 -4 -8.5 -3t-15.5 3q-6 4 -11.5 8.5t-3.5 8.5q14 41 22 66t11.5 38.5t4.5 18t1 5.5q0 6 17 3q3 -1 9 -4t12 -6.5t10.5 -6.5t4.5 -5q-10 -4 -20 -18q-8 -12 -17.5 -37.5t-15.5 -70.5z
M203 1q-149 0 -190 63q-14 24 -13 48.5t7 44.5t13.5 33.5t7.5 14.5l500 1044q4 5 10.5 8t11.5 -1q4 -2 4 -4.5t-1.5 -5.5t-3.5 -6t-3 -6l-501 -1044q-1 -1 -6 -13t-9 -29.5t-4.5 -36.5t8.5 -35q7 -12 25.5 -23t50.5 -18t80.5 -9t117.5 6q7 2 10.5 1.5t5.5 -8.5
q0 -16 -17 -19q-29 -4 -55 -4.5t-49 -0.5z" />
    <glyph glyph-name="u" unicode="u" horiz-adv-x="465" 
d="M127 3q-7 0 -11 3q-24 1 -42.5 11.5t-34.5 29.5q-16 22 -21.5 53t-4.5 66.5t5 73t7 72.5q-5 -2 -14 -2q-10 4 -6 17l65 167q4 9 17 9q4 -2 8 -6.5t2 -11.5q-1 0 -9 -24t-18.5 -62t-20.5 -85t-14 -94t1 -88.5t25 -68.5q23 -30 57 -34q53 -3 95 47q23 27 44 65.5t38.5 80
t31 84t22.5 79t12.5 63t0.5 37.5q-1 13 9 15q7 2 11.5 0t5.5 -6q4 -14 0.5 -44t-13 -69t-24 -83.5t-33 -88t-40 -83t-44.5 -67.5q-48 -56 -107 -56z" />
    <glyph glyph-name="v" unicode="v" horiz-adv-x="554" 
d="M107 5q-12 0 -10 11q1 10 -8.5 52t-24 98.5t-31.5 119t-31 112.5q-2 12 12 20q13 7 15 -4q4 -13 12 -41t18 -63.5t21 -75.5t20.5 -77t16.5 -68t9 -49q13 12 36.5 35t52 53.5t60.5 66.5t63 73.5t59 74t48 68.5q-3 -5 -6.5 -8.5l-6.5 -6.5q-5 -4 -10.5 -5t-8.5 2
q-5 2 -3.5 7.5t7.5 10.5q17 15 29.5 28.5t20.5 23.5q10 11 17 22q8 10 20 10q4 0 6 -3.5t0 -7.5q-8 -28 -38 -74t-70.5 -98.5t-87.5 -106t-88.5 -97.5t-73.5 -72.5t-43 -30.5h-2z" />
    <glyph glyph-name="w" unicode="w" horiz-adv-x="997" 
d="M95 5q-5 0 -8.5 3t-2.5 9q1 7 -1.5 32.5t-8 63t-13.5 84.5t-16.5 96.5t-18 98t-17.5 90.5q-1 6 3 11.5t10 8.5q16 7 18 -4q2 -10 8 -42t14 -76t17 -95t16.5 -98.5t13.5 -87t7 -59.5q13 10 35.5 30.5t50 47.5t59 59.5t62 66.5t58 68t48.5 65l-10 -10q-16 -10 -22 -4
q-3 3 -2 8t6 10q18 17 31.5 31.5t23.5 25.5q11 13 20 24q8 10 18 10q5 0 7 -3.5t0 -8.5q-9 -31 -39 -76.5t-71 -95.5t-87.5 -99.5t-88 -89.5t-73.5 -66t-43 -28h-4zM491 5q-13 0 -11 12q1 7 -3.5 30t-12.5 56t-18 74.5t-21.5 84.5t-23.5 85t-22 78q-2 13 13 21q14 7 16 -4
q4 -14 13 -44t19.5 -68t22 -80.5t21.5 -82.5t17.5 -73t9.5 -52q14 12 39 37t55.5 57.5t65 71t67.5 78.5t63 79t51 73q-5 -8 -14 -15q-5 -5 -11 -6t-9 2q-5 3 -3.5 8.5t7.5 10.5q34 32 54 56q11 12 18 24q8 10 21 10q5 0 7 -3.5t0 -8.5q-7 -22 -27 -55.5t-48.5 -73.5
t-63.5 -83t-71 -85t-71.5 -80t-65.5 -67.5t-51.5 -47.5t-30.5 -19h-2z" />
    <glyph glyph-name="x" unicode="x" horiz-adv-x="432" 
d="M359 4q-5 0 -6 2q-32 16 -70 56.5t-76 92.5t-74 109t-64 105t-46.5 81t-20.5 38q-3 13 6 18q12 3 17 -5q0 -1 10 -19.5t26.5 -48.5t39 -69t48.5 -80.5t54 -82.5t56 -76t54.5 -61t49.5 -37q6 -2 7.5 -7t0.5 -10q-5 -6 -12 -6zM13 4q-4 0 -7 2q-5 2 -5 7.5t2 10.5l253 349
q-3 0 -6 3q-5 9 1 18l67 61q10 8 16 0q7 -4 2 -17l-312 -429q-3 -5 -11 -5z" />
    <glyph glyph-name="y" unicode="y" horiz-adv-x="601" 
d="M292 8q-10 0 -13 6l-171 284q-1 -4 -4.5 -7.5t-7.5 -3.5q-5 -1 -10 2.5t-6 8.5q-1 9 -8.5 29t-19 44.5t-24 50t-22.5 45.5q-3 6 -1 11t6 9q5 3 11 1t9 -6l272 -452q4 -5 2.5 -11t-6.5 -9q-3 -2 -7 -2zM-115 -883q-3 0 -5 2q-13 7 -7 18l610 1357q2 6 8 8t12 0q5 -3 7 -9
t0 -11l-612 -1356q-4 -9 -13 -9z" />
    <glyph glyph-name="z" unicode="z" horiz-adv-x="578" 
d="M489 462h-1l-468 17q-5 0 -9 3.5t-4 7.5q0 6 4.5 10t8.5 4l469 -19q6 0 10 -3.5t4 -7.5q-3 -12 -14 -12zM26 8h-4t-3 2q-5 3 -6 8.5t4 10.5q8 11 30.5 35t54 56t70 70l77 76t75.5 73.5t66 64t48 47t21 21.5q5 4 10 4t9 -2q5 -5 6 -10t-4 -9q-1 -1 -18.5 -18t-46.5 -45
t-66 -63.5t-76.5 -74.5t-78 -77t-71 -71t-55.5 -57.5t-31 -34.5q-3 -6 -11 -6zM15 1q-9 0 -13 11q-3 13 11 17q2 1 43.5 4.5t110 6t158.5 2.5t189 -7q5 0 9 -5t4 -10q0 -6 -5 -10t-10 -4q-98 7 -187 7.5t-157 -2t-108.5 -6t-40.5 -4.5h-4z" />
    <glyph glyph-name="braceleft" unicode="{" horiz-adv-x="284" 
d="M108 -146q-8 0 -13 1q-18 5 -31 27q-14 23 -24.5 63.5t-16.5 91.5q-5 51 -4 94t9 69q4 15 6 24q-22 11 -26.5 23.5t-4.5 14.5q-2 8 8 12q6 2 17 2.5t20 -7.5q9 -9 11 -28q7 -2 15 -4t19 -3q21 -3 28 6q9 11 6 31.5t-6 33.5q-2 10 -2 12q-2 4 -9 17t-15 27
q-10 17 -22 38.5t-23.5 43.5t-20 44t-12.5 40q-7 40 17 71q21 26 56 37.5t66 11.5q35 0 48 -19q10 -14 8 -28.5t-3 -16.5q-4 -11 -16 -7q-11 4 -8 16q1 0 2.5 7.5t-3.5 14.5q-5 5 -12.5 7t-15.5 2q-26 0 -55.5 -10t-46.5 -30q-18 -23 -12 -51q3 -17 11.5 -38t19 -42
t22 -41.5t21.5 -37.5q15 -26 20.5 -36.5t6.5 -16.5q0 -1 2 -9q2 -9 4.5 -20.5t3 -23.5t-2 -23t-10.5 -20q-15 -18 -50 -15q-10 1 -17.5 2.5t-15.5 3.5q-1 -5 -2 -10.5t-3 -11.5q-7 -24 -8 -64.5t4 -88.5t15 -86.5t22 -58.5q6 -10 9.5 -12.5t5.5 -2.5q12 -3 20 2q8 7 11 23
t5 28q0 5 0.5 8.5t0.5 7.5q2 5 6 8t9 1q5 -1 8 -5t2 -9q-1 -2 -1 -5.5t-1 -7.5q-2 -16 -6 -36.5t-20 -32.5q-11 -8 -26 -8z" />
    <glyph glyph-name="bar" unicode="|" horiz-adv-x="133" 
d="M40 -169h-4q-3 1 -6 4t-3 7l19 784q2 10 10 10q10 -2 10 -10l-19 -786q0 -2 -2.5 -4.5zM17 521q-5 -2 -11 3q-2 2 -2 6t3 8q9 9 15.5 23.5t10.5 28.5t6 24l2 10q2 9 11 9q8 -2 8 -11q0 -1 -2.5 -12.5t-7 -26.5t-12 -31.5t-18.5 -27.5q0 -3 -3 -3z" />
    <glyph glyph-name="braceright" unicode="}" horiz-adv-x="341" 
d="M57 -118q-4 0 -14 2q-24 6 -35 30q-11 26 -4 60q2 12 15 10q5 -1 8 -5t1 -9q-5 -26 1 -42t20 -20q9 -2 21 1.5t25 13.5t24 27t19 42q9 29 10.5 52t-2.5 43t-11.5 38.5t-17.5 38.5q-9 19 -18.5 41t-17.5 49q-9 29 -1 44t19 23q8 5 19 7.5t22 4.5l-9 9q-24 32 -26 71
q-3 33 14 59q18 29 55 41q33 11 49.5 21.5t23.5 18.5q5 7 6 10.5t1 5.5v3q1 22 -15 36q-16 13 -44 18.5t-58 6.5t-58 -1.5t-44 -5.5q-12 -2 -15 10q-2 12 11 14q1 1 27 4t61 4q99 2 137 -32q23 -19 23 -53q1 -4 -0.5 -12t-9.5 -19q-22 -31 -88 -52q-18 -6 -29 -16.5
t-16 -21.5t-6 -21.5t-1 -16.5q2 -23 15.5 -47t38.5 -36q7 -1 13.5 -2t12.5 -3q12 -3 15 -4.5t5 -3.5q6 -6 3 -15q-4 -6 -9.5 -6.5t-8.5 0.5q-6 0 -16 3q-6 1 -11.5 3t-10.5 4q-18 2 -37 0.5t-30 -10.5q-2 -2 -6 -9t2 -27q8 -26 17 -47t18 -39q10 -21 18.5 -41.5t12.5 -42.5
t2.5 -47.5t-11.5 -58.5q-16 -51 -46 -77t-59 -26z" />
    <glyph glyph-name="asciitilde" unicode="~" 
 />
    <glyph glyph-name="exclamdown" unicode="&#xa1;" horiz-adv-x="299" 
d="M-86 -352q-2 0 -9 -1t-8 0q-9 4 -5 12l274 675q4 8 13 5q3 -2 7 -9.5t2 -11.5l-265 -664q-3 -6 -9 -6zM-80 -351q-1 0 -2 0.5t-2 0.5q-4 2 -11.5 5t-5.5 6q0 1 6 11t15 22.5t21.5 25.5t26.5 21q8 3 13 -5q4 -8 -4 -12q-12 -6 -21 -18t-15 -23t-9 -20l-3 -9q-3 -5 -9 -5z
M218 376q-8 0 -10 9q-13 -6 -30 -1q-14 5 -24.5 18t-12.5 28q-3 27 20 44q38 26 69 17q20 -6 29.5 -20t9.5 -15q11 -28 -1 -50q-5 -9 -13.5 -15t-16 -9t-13.5 -4l-6 -1zM236 440h3q10 -4 6 -13q-4 -10 -9.5 -17.5t-9.5 -11.5q7 2 14 6t12 12q7 12 0 33q-1 1 -7.5 10.5
t-20.5 13.5q-22 6 -52 -15q-8 -6 -10.5 -13t-1.5 -12q2 -10 8.5 -18.5t15.5 -12.5q15 -4 26 7q1 1 7 7.5t10 17.5q1 6 9 6z" />
    <glyph glyph-name="dieresis" unicode="&#xa8;" horiz-adv-x="282" 
d="M25 549q-7 0 -11 3q-8 6 -7 19.5t11 27.5q15 20 33 20q7 0 10 -3q8 -7 7.5 -20t-11.5 -27q-14 -20 -32 -20zM51 609q-11 0 -24 -16q-8 -11 -9.5 -20t3.5 -12q0 -1 4 -1q11 0 24 16q8 10 9 19.5t-3 11.5q-1 2 -4 2zM203 549q-7 0 -11 3q-8 6 -7 19.5t12 27.5
q6 9 15.5 14.5t17.5 5.5q6 0 9 -3q8 -7 7.5 -20t-10.5 -27q-15 -20 -33 -20zM230 609q-12 0 -25 -16q-8 -11 -9.5 -20t3.5 -12q0 -1 4 -1q5 0 11.5 4t12.5 12q8 10 9 19.5t-3 11.5q-1 2 -3 2z" />
    <glyph glyph-name="degree" unicode="&#xb0;" horiz-adv-x="301" 
d="M103 510q-15 2 -28.5 5.5t-25.5 11.5q-21 12 -33 30.5t-15.5 40t2.5 44t23 43.5q24 29 57.5 43.5t70.5 9.5q33 -5 53 -16q45 -26 52 -70t-29 -86q-21 -30 -56.5 -45.5t-70.5 -10.5zM163 704q-20 2 -47 -8.5t-47 -35.5q-11 -15 -15.5 -31.5t-4 -31t6.5 -26.5t16 -18
q5 -3 9 -3.5t12 -0.5q20 -2 46.5 6.5t49.5 33.5q12 16 16.5 32.5t3.5 31t-7 25.5t-15 17q-5 5 -11 6t-13 3z" />
    <glyph glyph-name="acute" unicode="&#xb4;" horiz-adv-x="251" 
d="M148 668q2 2 5 0.5t4 -4.5q2 -4 4 -9t2 -10q0 -11 -2 -19q-2 -7 -5.5 -13t-11.5 -5q-13 -2 -23 -4q-8 -2 -15.5 -2.5t-6.5 -0.5q4 -1 4 -11q-1 -5 -4.5 -7.5t-6.5 -1.5q-4 1 -14 -2t-21.5 -7.5t-23.5 -10.5t-21 -11q-7 -3 -10 6q0 10 6 15q2 1 38 28t101 70l1 -1v0z" />
    <glyph glyph-name="ordmasculine" unicode="&#xba;" horiz-adv-x="356" 
d="M156.009 325.99q-34.4521 0 -62.9414 11.6094q-28.4883 11.6094 -48.6963 33.1699q-20.207 21.5596 -31.1387 51.4121t-10.9316 67.0029q0 36.4863 12.9189 68.6611q12.9199 32.1738 35.4453 56.0566q22.5264 23.8818 52.6719 37.4814t64.5977 13.5996
q35.1143 0 63.6035 -15.5898t49.0273 -41.4619q20.5391 -25.8721 31.4707 -59.042t10.9316 -68.9932q0 -37.1494 -13.251 -65.6758q-13.25 -28.5254 -36.1074 -48.0957q-22.8574 -19.5693 -53.0029 -29.8525q-30.1455 -10.2822 -64.5977 -10.2822zM167.935 647.071
q-31.1396 0 -57.9717 -12.6045q-26.833 -12.6045 -47.04 -33.833q-20.208 -21.2285 -31.8018 -50.0859q-11.5947 -28.8574 -11.5947 -61.3633q0 -33.1699 9.60645 -59.7051q9.60742 -26.5361 27.4951 -45.7744q17.8887 -19.2383 43.0654 -29.5205
q25.1758 -10.2832 56.3154 -10.2832q30.4766 0 57.9717 9.28809q27.4951 9.28711 48.3652 26.5352t32.7959 42.7891q11.9258 25.54 11.9258 57.3828t-9.93848 62.0273q-9.9375 30.1846 -28.1572 53.7344q-18.2197 23.5508 -43.7275 37.4824
q-25.5078 13.9307 -57.3096 13.9307zM101.019 550.217q3.3125 4.64355 7.9502 10.6143q8.61328 11.2773 25.1768 24.5449q8.6123 6.63379 19.5439 13.2676q10.9326 6.63379 22.8584 11.9414q12.5879 5.30762 27.4951 8.62402q14.9072 3.31738 30.1455 1.32715
q7.28711 -0.664062 14.9062 -2.98535q7.62012 -2.32227 14.9072 -5.63867q6.62598 -3.31738 11.5947 -8.95605t10.2695 -10.9463q9.9375 -10.6143 17.2256 -21.2285q2.65039 -6.63379 5.63184 -12.6045q2.98145 -5.96973 4.30664 -11.2773t2.98145 -9.61914
q1.65625 -4.3125 2.31836 -8.95605q1.3252 -4.64355 1.98828 -8.29199q0.662109 -3.64844 2.64941 -6.96582q0.663086 -3.31641 0.994141 -6.30176t0.331055 -4.3125v-3.31738q-0.662109 0.664062 -1.3252 2.6543q-0.662109 1.32617 -1.9873 3.64844t-2.65039 5.63867
q-3.3125 13.2676 -14.5752 31.8428q-2.65039 5.30762 -5.63184 9.61914q-2.98145 4.3125 -6.95703 9.61914q-3.3125 5.30762 -6.625 10.2832q-3.3125 4.97461 -8.61328 8.95508q-4.6377 3.98047 -9.27539 7.62891q-4.6377 3.64941 -10.6006 6.96582
q-5.2998 2.65332 -10.9316 4.3125q-5.63184 1.6582 -12.9199 1.6582q-13.25 1.32715 -25.8389 -0.663086q-12.5879 -1.99023 -23.8516 -5.30762q-11.9248 -4.64355 -22.8574 -9.95117q-10.9316 -5.30664 -18.8818 -9.9502q-9.93848 -5.30762 -17.2256 -9.95117
q-7.28809 -4.64355 -12.5889 -7.96094q-5.96289 -3.98047 -7.9502 -5.96973z" />
    <glyph glyph-name="questiondown" unicode="&#xbf;" horiz-adv-x="917" 
d="M476 -238q-51 0 -108 11.5t-116 34.5q-79 31 -140.5 73.5t-91.5 87.5q-23 34 -25.5 67.5t17.5 62.5q51 72 151 87q80 12 187 -10q37 -8 71.5 -18t63 -20t50 -19t33.5 -14l61 202q3 10 14 7q5 -1 6.5 -5t0.5 -9l-65 -222q0 -4 -6 -6q-4 -4 -9 0l-18 8t-48 18.5t-69.5 23
t-84.5 21.5q-41 9 -84.5 17t-85 6.5t-78.5 -18t-65 -57.5q-14 -21 -13.5 -50t14.5 -54q31 -56 86.5 -89.5t132.5 -64.5q78 -32 153 -40t132 4q54 11 82 39.5t36 76.5q1 5 8.5 5.5t12.5 -0.5q11 -2 9 -12q-10 -54 -46 -89t-96 -49q-33 -6 -72 -6zM699 413q-32 0 -53 14
t-23 37q-1 12 4.5 22t16 18t24.5 12.5t31 5.5q2 0 3 0.5t3 0.5q32 0 53 -14.5t22 -36.5q3 -16 -12 -33q-23 -24 -63 -26h-6zM705 501h-5q-23 -2 -39.5 -12t-16.5 -24q1 -13 16.5 -22t38.5 -9h5q14 1 27.5 6.5t20.5 13.5q2 2 5 7t2 10q0 12 -16.5 21t-37.5 9z" />
    <glyph glyph-name="Aacute" unicode="&#xc1;" horiz-adv-x="866" 
d="M466 668q2 2 4.5 0.5t3.5 -3.5q2 -4 3.5 -8t1.5 -9q1 -10 -1 -17q-2 -6 -5.5 -11.5t-10.5 -4.5q-11 -2 -20 -3q-8 -2 -14.5 -2.5t-5.5 -0.5q4 -1 4 -10q-2 -10 -10 -8q-4 1 -12.5 -1.5t-19 -6.5t-21 -9.5t-18.5 -9.5q-6 -4 -9 5q0 3 1 7t5 6q1 1 33.5 25t89.5 62z
M678 -24q-6 0 -12 6l-345 484l-294 -458q-3 -5 -8.5 -7t-11.5 1q-5 3 -6 8.5t2 10.5l306 477q3 5 12 5q5 0 12 -5l357 -502q6 -11 -4 -18q-2 -2 -4 -2h-4zM116 158q-9 0 -14.5 -1t-5.5 9t5.5 18t14.5 8l39 5l40 -10l556 -6q8 0 13 -2.5t5 -12.5q0 -11 -5 -9.5t-13 1.5h-635z
M666 6q-4 5 -9 11q-5 5 -11.5 11t-14.5 13q-14 17 -36 34q-12 8 -23.5 16t-25.5 16q-12 8 -25.5 14t-27.5 12l-12 4t-12 5q-6 2 -12 3.5t-12 1.5q-11 5 -20 6.5l-15 2.5q-10 2 -11 2h-3h14q6 0 16 -0.5t21 -2.5q6 0 12 -1t12 -3q8 -3 14 -4t14 -3q13 -6 27 -11q8 -5 14 -8
t14 -8q26 -15 47.5 -34t35.5 -36q8 -9 13 -16t10 -12q2 -3 2.5 -5t1.5 -4z" />
    <glyph glyph-name="Eacute" unicode="&#xc9;" horiz-adv-x="922" 
d="M798 1297q2 2 4.5 0.5t3.5 -3.5q2 -4 3.5 -8t1.5 -9q1 -10 -1 -17q-2 -6 -5.5 -11.5t-10.5 -4.5q-11 -2 -20 -3q-8 -2 -14.5 -2.5t-5.5 -0.5q4 -1 4 -10q-2 -10 -10 -8q-4 1 -12.5 -1.5t-19 -6.5t-21 -9.5t-18.5 -9.5q-6 -4 -9 5q0 3 1 7t5 6q1 1 33.5 25t89.5 62z
M33 -57h-3q-5 1 -8.5 6t-1.5 12q3 18 25.5 73.5t56 134t76 173.5t87 192t87 189.5t77 166t56.5 121t26 55.5q5 14 18 8q5 -2 7 -7t-1 -11q-1 -2 -21.5 -46.5t-54 -117t-76 -165t-87 -191t-88 -195.5t-78 -177t-57 -136.5t-25.5 -73.5q-6 -11 -15 -11zM1540 1040
q-191 0 -363.5 1.5t-321 3.5t-268.5 5t-206 5t-133.5 3.5t-49.5 1.5q-5 0 -9.5 4t-4.5 9t4.5 8.5t9.5 3.5q3 0 70 -2t186.5 -4.5t285 -5t365.5 -4.5t429 -2t474.5 3t502 9t511.5 17q17 0 17 -13q0 -7 -4.5 -10.5t-10.5 -3.5q-191 -9 -383.5 -14.5t-380.5 -8.5t-369.5 -4.5
t-350.5 -1.5zM198 1060q-5 0 -9.5 4t-4.5 10q0 7 4.5 11.5t9.5 4.5q70 2 112.5 4t65 3.5t30 2.5t8.5 1q5 2 8.5 -2t3.5 -9q3 -5 1 -17t-7 -13q-11 9 -38 13q-23 3 -67 2t-117 -15zM1094 -8q-179 0 -342.5 1t-304.5 2t-255.5 2.5t-196.5 2.5t-128 2t-48 1q-14 0 -14 14
q2 5 6 8.5t9 3.5q4 0 86.5 -1.5t227.5 -3t343 -3t432 -2t495 0.5t532 4.5t543 10t528 16.5q5 2 9 -1.5t4 -8.5q0 -8 -4 -11t-9 -6q-231 -9 -476 -15t-490.5 -9.5t-485.5 -5.5t-461 -2zM163 455q-5 0 -9.5 3t-4.5 6q0 6 4.5 11t9.5 5q140 11 222.5 15.5t125.5 5.5
q26 2 41.5 3.5t26.5 1.5h2q11 0 13 -3t2 -8q2 -10 -6.5 -12.5t-9.5 -2.5h-5q-9 0 -32 -1t-69.5 -4t-121.5 -8t-188 -12h-1z" />
    <glyph glyph-name="Iacute" unicode="&#xcd;" horiz-adv-x="391" 
d="M387 700q2 2 4.5 0.5t3.5 -3.5q2 -4 3.5 -8t1.5 -9q1 -10 -1 -17q-2 -6 -5.5 -11.5t-10.5 -4.5q-11 -2 -20 -3q-8 -2 -14.5 -2.5t-5.5 -0.5q4 -1 4 -10q-2 -10 -10 -8q-4 1 -12.5 -1.5t-19 -6.5t-21 -9.5t-18.5 -9.5q-6 -4 -9 5q0 3 1 7t5 6q1 1 33.5 25t89.5 62zM21 0
q-2 0 -3 0.5t-3 0.5q-6 3 -7.5 8.5t-0.5 10.5q50 98 85 170.5t58.5 123.5t37 83t20 50.5t8.5 25t2 7.5q0 5 4 9t9 2q13 0 13 -13q0 -2 -1.5 -9t-8.5 -26t-20.5 -51.5t-37 -84.5t-59 -125.5t-85.5 -174.5q-3 -5 -11 -7z" />
    <glyph glyph-name="Ntilde" unicode="&#xd1;" horiz-adv-x="715" 
d="M528 567h-289q-4 0 -7.5 4t-3.5 9q0 7 3.5 11t7.5 4h289q10 0 10 -15q0 -13 -10 -13zM243 567q-4 0 -6 4.5t-2 10.5q0 5 2 10t5 5q34 3 55 5.5t32 4t15 2.5l4 1q5 0 8 -11q0 -6 -1 -18t-3 -14q-6 6 -19 10q-12 2 -33.5 1.5t-56.5 -11.5zM-430 -984q-2 0 -3.5 1t-2.5 1
q-4 3 -10.5 5t-4.5 6l16 20l666 1447q3 8 13 8q4 -2 8 -5t4 -7l118 -486q0 -5 -3.5 -9t-6.5 -4q-16 -2 -16 12l-115 437l-651 -1418q-5 -8 -12 -8zM365 0q-1 0 -2.5 1t-2.5 1q-10 5 -8 18q3 7 22 49.5t49 108.5t68 149t79 171t82 174.5t76 160t62.5 127.5t41.5 76
q17 26 37.5 66t41.5 87l-3 -3q-5 -4 -10.5 -3t-8.5 6q-7 8 1 19q17 13 33.5 32t30.5 44q18 40 34.5 80t31.5 76.5t27.5 68t20.5 54.5q2 11 5 20t5 16q3 8 4 14q1 4 4.5 7.5t8.5 1.5q10 0 13 -11q0 -5 -2.5 -17t-10.5 -32q-8 -25 -19 -60.5t-26 -75t-33 -79.5t-40 -74
q-34 -79 -67 -147t-56 -106q-14 -22 -41.5 -76.5t-63.5 -129t-77.5 -163t-82.5 -177t-79 -172t-67.5 -148t-47 -104t-18.5 -40.5q-2 -4 -6 -7t-6 -3z" />
    <glyph glyph-name="Oacute" unicode="&#xd3;" horiz-adv-x="684" 
d="M466 668q2 2 4.5 0.5t3.5 -3.5q2 -4 3.5 -8t1.5 -9q1 -10 -1 -17q-2 -6 -5.5 -11.5t-10.5 -4.5q-11 -2 -20 -3q-8 -2 -14.5 -2.5t-5.5 -0.5q4 -1 4 -10q-2 -10 -10 -8q-4 1 -12.5 -1.5t-19 -6.5t-21 -9.5t-18.5 -9.5q-6 -4 -9 5q0 3 1 7t5 6q1 1 33.5 25t89.5 62zM251 3
q-52 0 -95 16.5t-73.5 47t-47.5 73t-17 93.5q0 52 20 98t54 80t80 53.5t98 19.5q53 0 102 -21.5t86.5 -57t60 -82t22.5 -97.5q0 -52 -25.5 -93t-67 -70t-93.5 -44.5t-104 -15.5zM270 457q-47 0 -88 -17.5t-71.5 -47.5t-48.5 -71t-18 -88q0 -46 15 -83.5t42 -64t65 -41
t85 -14.5t94.5 13.5t85 39t61 62t23.5 81.5t-20.5 86.5t-54 74t-78 51.5t-92.5 19z" />
    <glyph glyph-name="Uacute" unicode="&#xda;" horiz-adv-x="465" 
d="M393 690q2 2 4.5 0.5t3.5 -3.5q2 -4 3.5 -8t1.5 -9q1 -10 -1 -17q-2 -6 -5.5 -11.5t-10.5 -4.5q-11 -2 -20 -3q-8 -2 -14.5 -2.5t-5.5 -0.5q4 -1 4 -10q-2 -10 -10 -8q-4 1 -12.5 -1.5t-19 -6.5t-21 -9.5t-18.5 -9.5q-6 -4 -9 5q0 3 1 7t5 6q1 1 33.5 25t89.5 62zM143 19
q-7 0 -11 3q-23 1 -40.5 11t-31.5 28q-15 21 -20.5 50.5t-4.5 63t4.5 69t6.5 68.5q-4 -2 -13 -2q-9 4 -6 16l62 158q4 9 16 9q4 -2 7.5 -6.5t1.5 -10.5l-8 -23t-18 -58.5t-19.5 -80.5t-13 -89.5t1.5 -84t23 -64.5q23 -28 54 -32q51 -3 90 44q22 26 42 62t36.5 75.5t29.5 80
t21 75t11.5 60t0.5 35.5q-2 12 9 14q6 2 10.5 0t5.5 -6q3 -14 0 -42t-12 -65t-23 -79t-31 -83.5t-37.5 -78.5t-42.5 -64q-45 -53 -101 -53z" />
    <glyph glyph-name="Yacute" unicode="&#xdd;" horiz-adv-x="684" 
d="M466 668q2 2 4.5 0.5t3.5 -3.5q2 -4 3.5 -8t1.5 -9q1 -10 -1 -17q-2 -6 -5.5 -11.5t-10.5 -4.5q-11 -2 -20 -3q-8 -2 -14.5 -2.5t-5.5 -0.5q4 -1 4 -10q-2 -10 -10 -8q-4 1 -12.5 -1.5t-19 -6.5t-21 -9.5t-18.5 -9.5q-6 -4 -9 5q0 3 1 7t5 6q1 1 33.5 25t89.5 62zM318 -8
q-9 0 -15 6l-181 310q-1 -5 -5 -8.5t-9 -3.5q-5 -1 -10.5 3t-7.5 9q0 10 -8.5 29.5t-20.5 43.5t-26 49.5t-26 47.5q-4 7 -1 12t9 10q5 3 10.5 1t9.5 -7l291 -477q5 -7 3 -13.5t-7 -8.5q-4 -3 -6 -3zM-168 -976q-2 0 -3.5 2t-5.5 2q-5 2 -6.5 8t2.5 11l723 1452q9 12 20 5
q13 -8 8 -20l-724 -1449q0 -5 -4.5 -8t-9.5 -3z" />
    <glyph glyph-name="aacute" unicode="&#xe1;" horiz-adv-x="557" 
d="M466 668q2 2 4.5 0.5t3.5 -3.5q2 -4 3.5 -8t1.5 -9q1 -10 -1 -17q-2 -6 -5.5 -11.5t-10.5 -4.5q-11 -2 -20 -3q-8 -2 -14.5 -2.5t-5.5 -0.5q4 -1 4 -10q-2 -10 -10 -8q-4 1 -12.5 -1.5t-19 -6.5t-21 -9.5t-18.5 -9.5q-6 -4 -9 5q0 3 1 7t5 6q1 1 33.5 25t89.5 62zM232 10
h-12t-11 1q-48 3 -81 22t-55.5 44.5t-35.5 55t-19.5 54t-8.5 41.5l-2 17q17 226 225 235q48 3 90 -14t77 -52q35 -33 53.5 -77t18.5 -92q0 -49 -19 -91.5t-51 -74.5t-76 -50.5t-93 -18.5zM218 41h14q43 0 81 16t66 44t44.5 65t16.5 79t-15.5 80.5t-46.5 67.5q-29 29 -66 44
t-78 12q-94 -4 -141.5 -54.5t-55.5 -149.5q0 -2 1.5 -13.5t3.5 -28.5q2 20 7 44.5t13 50.5q0 4 2 10.5t5 8.5q4 1 4 -1.5t3 -4.5q4 -3 4.5 -7t-0.5 -8t-2.5 -6.5t-2.5 -1.5q-12 -48 -10 -82t10 -57q9 -26 25 -45q6 -9 9 -13t8 -10q17 -16 34 -24q30 -11 60 -14h5h1
q1 -1 1 -2zM455 6q-13 0 -13 14v458q0 14 13 14t13 -14v-458q0 -14 -13 -14z" />
    <glyph glyph-name="eacute" unicode="&#xe9;" horiz-adv-x="548" 
d="M426 666q2 2 4.5 0.5t3.5 -3.5q2 -4 3.5 -8t1.5 -9q1 -10 -1 -17q-2 -6 -5.5 -11.5t-10.5 -4.5q-11 -2 -20 -3q-8 -2 -14.5 -2.5t-5.5 -0.5q4 -1 4 -10q-2 -10 -10 -8q-4 1 -12.5 -1.5t-19 -6.5t-21 -9.5t-18.5 -9.5q-6 -4 -9 5q0 3 1 7t5 6q1 1 33.5 25t89.5 62zM251 4
q-52 0 -97.5 20t-79 54t-53 80t-19.5 98t19.5 97.5t53 79.5t79 54t97.5 20q55 0 103 -21t84 -61q2 -2 3 -4.5t-1 -5.5q0 -5 -4 -9l-315 -269q-10 -10 -20 0q-2 5 -2 11t4 8l304 261q-31 29 -71 46t-85 17q-46 0 -86.5 -17.5t-70.5 -48t-47.5 -71.5t-17.5 -87t17.5 -87
t47.5 -71.5t70.5 -48t86.5 -17.5q43 0 81.5 15t70.5 43q4 4 12 13t16 20.5t14.5 23.5t8.5 23q2 6 6.5 9t9.5 1t9 -6t2 -10q-3 -16 -12.5 -32.5t-20 -29.5t-18.5 -21.5t-9 -9.5q-35 -32 -78.5 -49.5t-91.5 -17.5zM448 123h-21q-9 0 -12 10q-3 7 4 14l31 25q6 6 14 2
q7 -7 4 -14l-8 -27q-3 -10 -12 -10z" />
    <glyph glyph-name="iacute" unicode="&#xed;" horiz-adv-x="358" 
d="M387 700q2 2 4.5 0.5t3.5 -3.5q2 -4 3.5 -8t1.5 -9q1 -10 -1 -17q-2 -6 -5.5 -11.5t-10.5 -4.5q-11 -2 -20 -3q-8 -2 -14.5 -2.5t-5.5 -0.5q4 -1 4 -10q-2 -10 -10 -8q-4 1 -12.5 -1.5t-19 -6.5t-21 -9.5t-18.5 -9.5q-6 -4 -9 5q0 3 1 7t5 6q1 1 33.5 25t89.5 62zM19 2
q-2 0 -3.5 1t-4.5 1q-4 3 -6 8t1 11q48 99 82 171.5t56.5 123.5t35 83.5t19 50.5t8 25l1.5 7q3 14 15 14q13 -3 13 -15q-1 -2 -2.5 -9t-8 -26t-19.5 -51.5t-35.5 -84.5t-57 -125.5t-83.5 -174.5q-2 -5 -5 -6.5t-6 -3.5z" />
    <glyph glyph-name="ntilde" unicode="&#xf1;" horiz-adv-x="532" 
d="M457 568h-289q-4 0 -7.5 4t-3.5 9q0 7 3.5 11t7.5 4h289q10 0 10 -15q0 -13 -10 -13zM172 568q-4 0 -6 4.5t-2 10.5q0 5 2 10t5 5q34 3 55 5.5t32 4t15 2.5l4 1q5 0 8 -11q0 -6 -1 -18t-3 -14q-6 6 -19 10q-12 2 -33.5 1.5t-56.5 -11.5zM167 404l-13 43l22 67l26 -4z
M16 0q-14 0 -14 13q0 11 7 35.5t18.5 54t26.5 58.5t30 49q9 13 21 39.5t23.5 58t22.5 65t20 61t14 45.5t5 19q2 5 7 7.5t11 0.5t8.5 -6t0.5 -9q-1 -3 -6.5 -21.5t-14.5 -47t-20 -62t-23 -65.5t-24 -58.5t-22 -40.5q-15 -21 -29 -49t-25.5 -55.5t-18 -49.5t-6.5 -29
q0 -5 -3.5 -9t-8.5 -4zM286 -11q-2 0 -4 2q-5 0 -8.5 4.5t-1.5 10.5q5 22 24 53.5t39 75.5q15 33 32.5 81.5t29.5 96.5t15.5 89.5t-7.5 61.5q-2 5 -7 8.5t-17 3.5q-33 0 -72 -29.5t-76.5 -70.5t-69 -84t-49.5 -70q-7 -11 -20 -4q-4 3 -5 9t2 11q2 2 16 23t36 50t51 62.5
t60.5 62t64 47.5t62.5 19q21 0 31.5 -8t15.5 -16q12 -21 12 -55t-7.5 -73.5t-20 -79.5t-24 -72.5t-20.5 -53.5t-9 -22q-25 -52 -39 -81t-17 -42q-2 -4 -7.5 -7t-9.5 -3z" />
    <glyph glyph-name="oacute" unicode="&#xf3;" horiz-adv-x="648" 
d="M466 668q2 2 4.5 0.5t3.5 -3.5q2 -4 3.5 -8t1.5 -9q1 -10 -1 -17q-2 -6 -5.5 -11.5t-10.5 -4.5q-11 -2 -20 -3q-8 -2 -14.5 -2.5t-5.5 -0.5q4 -1 4 -10q-2 -10 -10 -8q-4 1 -12.5 -1.5t-19 -6.5t-21 -9.5t-18.5 -9.5q-6 -4 -9 5q0 3 1 7t5 6q1 1 33.5 25t89.5 62zM240 3
q-52 0 -95 17.5t-73.5 50t-47 77.5t-16.5 101q0 55 19.5 103.5t53.5 84.5t79.5 56.5t97.5 20.5q53 0 96 -23.5t74 -62.5t47.5 -89t16.5 -104q0 -56 -20 -99t-54.5 -72.5t-80 -45t-97.5 -15.5zM258 487q-47 0 -87.5 -19t-71 -51t-48 -75.5t-17.5 -92.5q0 -50 14.5 -90
t41.5 -69t65 -44.5t85 -15.5q46 0 87.5 14t73 40t49.5 64.5t18 86.5t-15 93.5t-42.5 81t-66 56.5t-86.5 21zM157 341q5 7 12 16q13 17 38 37q13 10 29.5 20t34.5 18q19 8 41.5 13t45.5 2q11 -1 22.5 -4.5t22.5 -8.5q10 -5 17.5 -13.5t15.5 -16.5q15 -16 26 -32
q4 -10 8.5 -19t6.5 -17t4.5 -14.5t3.5 -13.5q2 -7 3 -12.5t4 -10.5q1 -5 1.5 -9.5t0.5 -6.5v-5q-1 1 -2 4q-1 2 -3 5.5t-4 8.5q-5 20 -22 48q-4 8 -8.5 14.5t-10.5 14.5q-5 8 -10 15.5t-13 13.5q-7 6 -14 11.5t-16 10.5q-8 4 -16.5 6.5t-19.5 2.5q-20 2 -39 -1t-36 -8
q-18 -7 -34.5 -15t-28.5 -15q-15 -8 -26 -15t-19 -12q-9 -6 -12 -9z" />
    <glyph glyph-name="uacute" unicode="&#xfa;" horiz-adv-x="471" 
d="M361 676q2 2 4.5 0.5t3.5 -3.5q2 -4 3.5 -8t1.5 -9q1 -10 -1 -17q-2 -6 -5.5 -11.5t-10.5 -4.5q-11 -2 -20 -3q-8 -2 -14.5 -2.5t-5.5 -0.5q4 -1 4 -10q-2 -10 -10 -8q-4 1 -12.5 -1.5t-19 -6.5t-21 -9.5t-18.5 -9.5q-6 -4 -9 5q0 3 1 7t5 6q1 1 33.5 25t89.5 62zM127 3
q-7 0 -11 3q-24 1 -42.5 11.5t-34.5 29.5q-16 22 -21.5 53t-4.5 66.5t5 73t7 72.5q-5 -2 -14 -2q-10 4 -6 17l65 167q4 9 17 9q4 -2 8 -6.5t2 -11.5q-1 0 -9 -24t-18.5 -62t-20.5 -85t-14 -94t1 -88.5t25 -68.5q23 -30 57 -34q53 -3 95 47q23 27 44 65.5t38.5 80t31 84
t22.5 79t12.5 63t0.5 37.5q-1 13 9 15q7 2 11.5 0t5.5 -6q4 -14 0.5 -44t-13 -69t-24 -83.5t-33 -88t-40 -83t-44.5 -67.5q-48 -56 -107 -56z" />
    <glyph glyph-name="udieresis" unicode="&#xfc;" horiz-adv-x="471" 
d="M127 3q-7 0 -11 3q-24 1 -42.5 11.5t-34.5 29.5q-16 22 -21.5 53t-4.5 66.5t5 73t7 72.5q-5 -2 -14 -2q-10 4 -6 17l65 167q4 9 17 9q4 -2 8 -6.5t2 -11.5q-1 0 -9 -24t-18.5 -62t-20.5 -85t-14 -94t1 -88.5t25 -68.5q23 -30 57 -34q53 -3 95 47q23 27 44 65.5t38.5 80
t31 84t22.5 79t12.5 63t0.5 37.5q-1 13 9 15q7 2 11.5 0t5.5 -6q4 -14 0.5 -44t-13 -69t-24 -83.5t-33 -88t-40 -83t-44.5 -67.5q-48 -56 -107 -56zM145 549q-7 0 -11 3q-8 6 -7 19.5t11 27.5q15 20 33 20q7 0 10 -3q8 -7 7.5 -20t-11.5 -27q-14 -20 -32 -20zM171 609
q-11 0 -24 -16q-8 -11 -9.5 -20t3.5 -12q0 -1 4 -1q11 0 24 16q8 10 9 19.5t-3 11.5q-1 2 -4 2zM323 549q-7 0 -11 3q-8 6 -7 19.5t12 27.5q6 9 15.5 14.5t17.5 5.5q6 0 9 -3q8 -7 7.5 -20t-10.5 -27q-15 -20 -33 -20zM350 609q-12 0 -25 -16q-8 -11 -9.5 -20t3.5 -12
q0 -1 4 -1q5 0 11.5 4t12.5 12q8 10 9 19.5t-3 11.5q-1 2 -3 2z" />
    <glyph glyph-name="yacute" unicode="&#xfd;" horiz-adv-x="778" 
d="M431 676q2 2 4.5 0.5t3.5 -3.5q2 -4 3.5 -8t1.5 -9q1 -10 -1 -17q-2 -6 -5.5 -11.5t-10.5 -4.5q-11 -2 -20 -3q-8 -2 -14.5 -2.5t-5.5 -0.5q4 -1 4 -10q-2 -10 -10 -8q-4 1 -12.5 -1.5t-19 -6.5t-21 -9.5t-18.5 -9.5q-6 -4 -9 5q0 3 1 7t5 6q1 1 33.5 25t89.5 62zM292 8
q-10 0 -13 6l-171 284q-1 -4 -4.5 -7.5t-7.5 -3.5q-5 -1 -10 2.5t-6 8.5q-1 9 -8.5 29t-19 44.5t-24 50t-22.5 45.5q-3 6 -1 11t6 9q5 3 11 1t9 -6l272 -452q4 -5 2.5 -11t-6.5 -9q-3 -2 -7 -2zM-115 -883q-3 0 -5 2q-13 7 -7 18l610 1357q2 6 8 8t12 0q5 -3 7 -9t0 -11
l-612 -1356q-4 -9 -13 -9z" />
    <glyph glyph-name="caron" unicode="&#x2c7;" 
 />
    <glyph glyph-name="ring" unicode="&#x2da;" horiz-adv-x="195" 
d="M67 510q-19 2 -32 10q-25 15 -29.5 42t15.5 52q14 17 34 25.5t42 6.5q21 -3 32 -10q26 -15 30.5 -41.5t-16.5 -51.5q-13 -18 -34 -27t-42 -6zM103 625q-12 2 -28 -4.5t-28 -21.5q-14 -18 -12 -37t13 -26q4 -2 6 -2.5t7 -0.5q12 -2 27.5 3.5t29.5 20.5q14 19 12 37.5
t-13 25.5q-3 3 -6.5 3.5t-7.5 1.5z" />
    <glyph glyph-name="tilde" unicode="&#x2dc;" 
 />
    <glyph glyph-name="hungarumlaut" unicode="&#x2dd;" horiz-adv-x="731" 
d="M189 668q2 2 4.5 0.5t3.5 -3.5q2 -4 3.5 -8t1.5 -9q1 -10 -1 -17q-2 -6 -5.5 -11.5t-10.5 -4.5q-11 -2 -20 -3q-8 -2 -14.5 -2.5t-5.5 -0.5q4 -1 4 -10q-2 -10 -10 -8q-4 1 -12.5 -1.5t-19 -6.5t-21 -9.5t-18.5 -9.5q-6 -4 -9 5q0 3 1 7t5 6q1 1 33.5 25t89.5 62z
M613 668q2 2 4.5 0.5t3.5 -3.5q2 -4 3.5 -8t1.5 -9q1 -10 -1 -17q-2 -6 -5.5 -11.5t-10.5 -4.5q-11 -2 -20 -3q-8 -2 -14.5 -2.5t-5.5 -0.5q4 -1 4 -10q-2 -10 -10 -8q-4 1 -12.5 -1.5t-19 -6.5t-21 -9.5t-18.5 -9.5q-6 -4 -9 5q0 3 1 7t5 6q1 1 33.5 25t89.5 62z" />
    <glyph glyph-name="endash" unicode="&#x2013;" horiz-adv-x="433" 
d="M11 253q-7 0 -7 12q0 13 7 13q8 1 18.5 3.5t20 6t17.5 7.5t11 9q7 7 11 -3q3 -9 -2 -18l-2 -4q31 1 71 2t79.5 2t73.5 2t53 1q3 0 5.5 -4t2.5 -9q0 -13 -8 -13q-19 0 -52.5 -0.5t-72 -1t-78.5 -1.5t-72.5 -2t-53.5 -1.5t-22 -0.5z" />
    <glyph glyph-name="quoteleft" unicode="&#x2018;" horiz-adv-x="152" 
d="M14 433q-2 4 -4 7t-4 7q-2 11 2.5 21t14.5 16q12 9 27 6t23 -14q8 -14 5.5 -28.5t-15.5 -22.5q-12 -9 -27 -6t-22 14zM8 443q0 29 5 55q5 23 14.5 47t29.5 41q-12 -22 -18 -45q-5 -20 -5.5 -43t12.5 -44q12 -20 8 -24.5t-15 -1.5q-12 4 -31 15z" />
    <glyph glyph-name="quoteright" unicode="&#x2019;" horiz-adv-x="170" 
d="M75 591q3 -4 5 -14q2 -11 -2.5 -22.5t-14.5 -17.5q-14 -10 -30.5 -6t-25.5 18t-5.5 30t17.5 24q14 9 30.5 5.5t25.5 -17.5zM80 582q-1 -32 -7 -61q-5 -25 -17.5 -51.5t-35.5 -43.5q14 24 22 49q7 21 8 46.5t-12 49.5q-14 23 -8.5 28t16.5 1q13 -4 34 -18z" />
    <glyph glyph-name="quotesinglbase" unicode="&#x201a;" horiz-adv-x="174" 
d="M88 44v-8.5t-1 -8.5q-5 -12 -15 -20t-24 -9q-17 -2 -31 10t-16 29q-1 18 10.5 31.5t30.5 14.5q17 2 31 -10t15 -29zM88 31q-17 -29 -38 -54q-18 -21 -43 -40t-55 -24q25 16 45 36q17 17 31 41t14 53q-1 28 6 29.5t16 -7.5q11 -11 24 -34z" />
    <glyph glyph-name="quotedblleft" unicode="&#x201c;" horiz-adv-x="302" 
d="M14 443q-2 4 -4 7t-4 7q-2 11 2.5 21t14.5 16q12 9 27 6t23 -14q8 -14 5.5 -28.5t-15.5 -22.5q-12 -9 -27 -6t-22 14zM8 453q0 29 5 55q5 23 14.5 47t29.5 41q-12 -22 -18 -45q-5 -20 -5.5 -43t12.5 -44q12 -20 8 -24.5t-15 -1.5q-12 4 -31 15zM128 444q-2 4 -4 7t-4 7
q-2 11 2.5 21t14.5 16q12 9 27 6t23 -14q8 -14 5.5 -28.5t-15.5 -22.5q-12 -9 -27 -6t-22 14zM122 454q0 29 5 55q5 23 14.5 47t29.5 41q-12 -22 -18 -45q-5 -20 -5.5 -43t12.5 -44q12 -20 8 -24.5t-15 -1.5q-12 4 -31 15z" />
    <glyph glyph-name="quotedblright" unicode="&#x201d;" horiz-adv-x="307" 
d="M75 608q3 -4 5 -14q2 -11 -2.5 -22.5t-14.5 -17.5q-14 -10 -30.5 -6t-25.5 18t-5.5 30t17.5 24q14 9 30.5 5.5t25.5 -17.5zM80 599q-1 -32 -7 -61q-5 -25 -17.5 -51.5t-35.5 -43.5q14 24 22 49q7 21 8 46.5t-12 49.5q-14 23 -8.5 28t16.5 1q13 -4 34 -18zM194 608
q3 -4 5 -14q2 -11 -2.5 -22.5t-14.5 -17.5q-14 -10 -30.5 -6t-25.5 18t-5.5 30t17.5 24q14 9 30.5 5.5t25.5 -17.5zM199 599q-1 -32 -7 -61q-5 -25 -17.5 -51.5t-35.5 -43.5q14 24 22 49q7 21 8 46.5t-12 49.5q-14 23 -8.5 28t16.5 1q13 -4 34 -18z" />
    <glyph glyph-name="quotedblbase" unicode="&#x201e;" 
 />
    <glyph glyph-name="minus" unicode="&#x2212;" horiz-adv-x="505" 
d="M14 255q-9 0 -9 12q-2 13 8 13q10 1 23 3.5t25.5 6t22.5 7.5t14 9q3 3 7 2t6 -5q5 -10 -2 -18q0 -1 -1 -1.5t-2 -2.5q39 1 86 1.5t93 1t85.5 1t63.5 0.5q4 0 7 -4t3 -9q0 -13 -10 -13h-64.5t-87 -0.5t-94 -1t-86 -1t-63 -1t-25.5 -0.5z" />
    </font>
</defs>
</svg>
